<?xml version="1.0" encoding="UTF-8"?>
<!DOCTYPE svg PUBLIC "-//W3C//DTD SVG 1.1//EN" "http://www.w3.org/Graphics/SVG/1.1/DTD/svg11.dtd">
<!-- Creator: CorelDRAW 2021 (64 Bit) -->
<svg xmlns="http://www.w3.org/2000/svg" xml:space="preserve" width="500px" height="500px" version="1.1" style="shape-rendering:geometricPrecision; text-rendering:geometricPrecision; image-rendering:optimizeQuality; fill-rule:evenodd; clip-rule:evenodd"
viewBox="0 0 500 500"
 xmlns:xlink="http://www.w3.org/1999/xlink"
 xmlns:xodm="http://www.corel.com/coreldraw/odm/2003">
 <defs>
  <style type="text/css">
   <![CDATA[
    .fil0 {fill:none}
    .fil2 {fill:#03E6FF}
    .fil5 {fill:#C654FF}
    .fil4 {fill:#FBFCFF}
    .fil1 {fill:#FDFDFD}
    .fil3 {fill:#FF2121}
   ]]>
  </style>
 </defs>
 <g id="Camada_x0020_1">
  <metadata id="CorelCorpID_0Corel-Layer"/>
  <g id="_2768953902128">
   <rect class="fil0" width="500" height="500"/>
   <g>
    <path class="fil1" d="M130.57 287.99c-0.05,-9.45 -1.91,-27.28 2.01,-33.67 6.03,-0.5 24.05,10.81 28.93,13.6 20.49,11.75 21.76,9.54 21.78,20.98 0.01,12.82 1.63,34.77 -2.97,43.65 -7.27,-0.77 -10.15,-4.5 -15.95,-7.77l-29.18 -16.6c-7.05,-4.59 -4.57,-8.81 -4.62,-20.19zm82.83 10.13l2.36 1.78c2.25,-0.03 35.73,19.22 37.32,20.54 4.5,3.71 2.26,11.4 -4.4,8.99 -1.97,-0.72 -10.09,-5.92 -12.78,-7.47l-24.56 -13.89c-15.8,-9.3 -3.2,-15.43 2.06,-9.95zm41.55 -2.15c-1,2.89 0.32,0.44 -1.81,1.51 -1.64,4.85 -16.35,-5.63 -21.66,-8.65 -6.81,-3.88 -12.77,-8.25 -20.62,-12.42 -4.78,-2.53 -7.4,-2.9 -7.9,-9.54l-0.04 -33c-0.19,-21.24 8.51,-11.06 24.24,-2.15 31.34,17.75 28.25,12.34 28.3,34.26 0.01,7.56 0.99,23.66 -0.51,29.99zm-124.33 -90.52c0.02,-6.97 -2.95,-24.31 4.52,-25.12 4.73,-0.52 15.81,7.97 19.55,10.12 28.63,16.49 28.61,13.47 28.52,30.59 -0.04,6.91 1.1,31.08 -0.95,34.12 -4.43,5.22 -12.12,-1.72 -16.48,-4.23l-23.68 -13.99c-12.93,-6.8 -11.55,-0.89 -11.48,-31.49zm93.83 173.67c7.09,3.32 15.42,8.77 21.69,12.4l42.92 25c25.08,14.86 23.01,13.41 23.07,-3.82l0.04 -132.05c0.01,-13.05 2.04,-20.9 -4.34,-25.05 -4.81,-3.13 -33.71,-16.61 -35.73,-22.64 -2.58,-3.97 0.5,-2.82 -3.52,-6.04 -4.66,-3.73 -32.16,-19.1 -38.55,-22.82l-44.19 -25.47c-7.99,-4.42 -84.12,-49.42 -89.3,-50.95l-0.01 142.88c0.01,20.64 -3.25,30.72 8.08,38.8l29.84 17.8c10.57,6.6 20.35,12.01 30.07,17.55 9.17,5.23 21.75,12.03 30.49,17.26 5.15,3.09 10.18,5.79 15.17,8.66 3.85,2.2 10.49,5.76 14.27,8.49z"/>
    <path class="fil2" d="M96.97 89.02l-0.43 38.66c5.18,1.53 81.31,46.53 89.3,50.95l44.19 25.47c6.39,3.72 33.89,19.09 38.55,22.82 4.02,3.22 0.94,2.07 3.52,6.04 -2.25,-8.83 0.33,-33.08 -0.52,-44.01 -3.61,-3.04 -16.35,-9.46 -21.67,-12.13 -7.87,-3.96 -14.48,-7.97 -22.15,-12.79l-119.03 -70.7c-2.72,-1.64 -8.86,-4.41 -10.31,-5.68 -1.82,0.35 -1.23,-0.78 -1.45,1.37z"/>
    <path class="fil1" d="M267.72 148.55l-1.06 -0.55c-5.7,-2.18 -14.86,-8.13 -19.83,-11.07l-58.33 -33.48c-7.82,-4.47 -51.95,-32.34 -58.94,-32.89 -3.67,-0.29 -18.27,7.86 -20.7,10.18l67.03 40.89c29.87,16.67 62.78,36.8 93.01,52.77 12.23,6.47 12.8,6.04 21.19,15.66 3.29,-0.66 21.44,-12.17 23.01,-14.87 -5.42,-4.76 -41.7,-22.08 -45.38,-26.64z"/>
    <path class="fil3" d="M96.97 89.02c0.22,-2.15 -0.37,-1.02 1.45,-1.37 1.45,1.27 7.59,4.04 10.31,5.68l119.03 70.7c7.67,4.82 14.28,8.83 22.15,12.79 5.32,2.67 18.06,9.09 21.67,12.13 0.85,10.93 -1.73,35.18 0.52,44.01 2.02,6.03 30.92,19.51 35.73,22.64 6.38,4.15 4.35,12 4.34,25.05l-0.04 132.05c-0.06,17.23 2.01,18.68 -23.07,3.82l-42.92 -25c-6.27,-3.63 -14.6,-9.08 -21.69,-12.4 -3.78,-2.73 -10.42,-6.29 -14.27,-8.49 -4.99,-2.87 -10.02,-5.57 -15.17,-8.66 -8.74,-5.23 -21.32,-12.03 -30.49,-17.26 -9.72,-5.54 -19.5,-10.95 -30.07,-17.55l-29.84 -17.8c-11.33,-8.08 -8.07,-18.16 -8.08,-38.8l0.01 -142.88 0.43 -38.66zm169.69 58.98l1.06 0.55c3.68,4.56 39.96,21.88 45.38,26.64 -1.57,2.7 -19.72,14.21 -23.01,14.87 -8.39,-9.62 -8.96,-9.19 -21.19,-15.66 -30.23,-15.97 -63.14,-36.1 -93.01,-52.77l-67.03 -40.89c2.43,-2.32 17.03,-10.47 20.7,-10.18 6.99,0.55 51.12,28.42 58.94,32.89l58.33 33.48c4.97,2.94 14.13,8.89 19.83,11.07zm53.69 20.63c-0.93,-2.97 -8.8,-5.51 -12.58,-7.49 -4.4,-2.3 -8.37,-5.01 -12.76,-7.41 -7.89,-4.33 -16.4,-9.58 -25.52,-14.83l-103.46 -59.72c-39.29,-22.61 -33.79,-21.92 -53.83,-10.33 -28.97,16.74 -25.39,4.88 -25.46,55.9l0 163.24c-0.04,15.19 2.08,21.78 11.36,28.76 3.33,2.51 21.9,14.45 25.07,14.34 3.68,4.52 113.31,66.77 122.44,72 10.96,6.29 20.73,12.04 30.81,17.74 29.86,16.88 32.07,27.57 66.15,6.77l27.74 -17.28c1.18,-0.99 0.7,-0.53 1.56,-1.58 3.01,-0.41 9.64,-5.26 13.2,-7.37 6.54,-3.89 23.57,-12.31 26.23,-16.08 9.02,-12.78 -13.52,-21.01 -29.48,-30.45 -7,-4.14 -19.8,-12.82 -25.65,-15 -0.26,-34.18 -0.46,-69.09 0.02,-103.23 0.14,-9.45 -2.99,-12.21 -6.71,-19.04 -2.92,-5.35 -5.76,-11.06 -8.87,-16.73 -3.74,-6.83 -13.36,-28.34 -20.26,-32.21zm-12.43 75.62c-2.69,-1.15 -21.64,-12.25 -23.52,-13.88 -3.41,-2.98 -2.08,-9.67 -2.06,-15.75 0.01,-5.03 -1.18,-13.05 0.41,-17.15 2.48,1.46 23.18,41.1 25.17,46.78z"/>
    <path class="fil3" d="M130.62 205.45c-0.07,30.6 -1.45,24.69 11.48,31.49l23.68 13.99c4.36,2.51 12.05,9.45 16.48,4.23 2.05,-3.04 0.91,-27.21 0.95,-34.12 0.09,-17.12 0.11,-14.1 -28.52,-30.59 -3.74,-2.15 -14.82,-10.64 -19.55,-10.12 -7.47,0.81 -4.5,18.15 -4.52,25.12z"/>
    <path class="fil3" d="M230.47 244.99c2.4,4.05 14.42,5.13 15.26,11.91 0.58,4.61 0.89,23.52 0.61,28.38 -4.97,-2.38 -28.58,-17.57 -32.48,-18.39l-0.33 -30.84c5.08,1.51 11.1,6.48 16.94,8.94zm24.48 50.98c1.5,-6.33 0.52,-22.43 0.51,-29.99 -0.05,-21.92 3.04,-16.51 -28.3,-34.26 -15.73,-8.91 -24.43,-19.09 -24.24,2.15l0.04 33c0.5,6.64 3.12,7.01 7.9,9.54 7.85,4.17 13.81,8.54 20.62,12.42 5.31,3.02 20.02,13.5 21.66,8.65 2.13,-1.07 0.81,1.38 1.81,-1.51z"/>
    <path class="fil4" d="M307.92 244.25c-1.99,-5.68 -22.69,-45.32 -25.17,-46.78 -1.59,4.1 -0.4,12.12 -0.41,17.15 -0.02,6.08 -1.35,12.77 2.06,15.75 1.88,1.63 20.83,12.73 23.52,13.88z"/>
    <path class="fil3" d="M172.06 317.78c-2.26,-2.8 -20.57,-12.42 -25.72,-15.42 -6.39,-3.71 -5.91,-5.15 -5.84,-14.37 0.05,-6.73 -0.1,-13.48 -0.07,-20.21 3.36,1.21 9.82,5.11 13.92,7.29 21.15,11.22 18.85,9.2 18.92,21.16 0.03,5.23 -0.46,14.76 0.32,19.27 -0.44,4.03 1.16,2.56 -1.53,2.28zm-41.49 -29.79c0.05,11.38 -2.43,15.6 4.62,20.19l29.18 16.6c5.8,3.27 8.68,7 15.95,7.77 4.6,-8.88 2.98,-30.83 2.97,-43.65 -0.02,-11.44 -1.29,-9.23 -21.78,-20.98 -4.88,-2.79 -22.9,-14.1 -28.93,-13.6 -3.92,6.39 -2.06,24.22 -2.01,33.67z"/>
    <path class="fil5" d="M172.06 317.78c2.69,0.28 1.09,1.75 1.53,-2.28 -0.78,-4.51 -0.29,-14.04 -0.32,-19.27 -0.07,-11.96 2.23,-9.94 -18.92,-21.16 -4.1,-2.18 -10.56,-6.08 -13.92,-7.29 -0.03,6.73 0.12,13.48 0.07,20.21 -0.07,9.22 -0.55,10.66 5.84,14.37 5.15,3 23.46,12.62 25.72,15.42z"/>
    <path class="fil5" d="M140.8 194.44c0.15,30.74 -3.89,29.62 6.93,34.21 8.47,3.6 22.86,13.56 25.57,14.17 -0.65,-38.03 5.09,-26.28 -19.29,-41.54 -3.6,-2.25 -9.31,-6.63 -13.21,-6.84z"/>
    <path class="fil5" d="M213.86 266.89c3.9,0.82 27.51,16.01 32.48,18.39 0.28,-4.86 -0.03,-23.77 -0.61,-28.38 -0.84,-6.78 -12.86,-7.86 -15.26,-11.91 -5.84,-2.46 -11.86,-7.43 -16.94,-8.94l0.33 30.84z"/>
    <path class="fil3" d="M213.4 298.12c-5.26,-5.48 -17.86,0.65 -2.06,9.95l24.56 13.89c2.69,1.55 10.81,6.75 12.78,7.47 6.66,2.41 8.9,-5.28 4.4,-8.99 -1.59,-1.32 -35.07,-20.57 -37.32,-20.54l-2.36 -1.78z"/>
   </g>
  </g>
 </g>
</svg>
