<?xml version="1.0" encoding="UTF-8"?>
<!DOCTYPE svg PUBLIC "-//W3C//DTD SVG 1.1//EN" "http://www.w3.org/Graphics/SVG/1.1/DTD/svg11.dtd">
<!-- Creator: CorelDRAW 2021 (64 Bit) -->
<svg xmlns="http://www.w3.org/2000/svg" xml:space="preserve" width="500px" height="500px" version="1.1" style="shape-rendering:geometricPrecision; text-rendering:geometricPrecision; image-rendering:optimizeQuality; fill-rule:evenodd; clip-rule:evenodd"
viewBox="0 0 500 500"
 xmlns:xlink="http://www.w3.org/1999/xlink"
 xmlns:xodm="http://www.corel.com/coreldraw/odm/2003">
 <defs>
  <style type="text/css">
   <![CDATA[
    .fil0 {fill:none}
    .fil5 {fill:#03E6FF}
    .fil2 {fill:#C654FF}
    .fil4 {fill:#FAFAFE}
    .fil1 {fill:#FDFDFD}
    .fil3 {fill:#FF2121}
   ]]>
  </style>
 </defs>
 <g id="Camada_x0020_1">
  <metadata id="CorelCorpID_0Corel-Layer"/>
  <g id="_2768977080928">
   <rect class="fil0" width="500" height="500"/>
   <g>
    <path class="fil1" d="M294.64 357.07c-1.09,-19.68 21.66,-18.19 26.57,0.91 4.39,17.04 -9.3,22.9 -18.6,15.15 -2.73,-2.27 -5.16,-4.36 -5.44,-8.28 -2.32,-1.92 -2.14,-4.26 -2.53,-7.78zm-0.74 -75.11c1.92,0.65 1.36,0.19 3.24,1.34 1.69,1.04 0.53,0.19 1.62,1.57 2.52,0.13 21.95,11.71 26.46,14.36 4.42,2.61 4.14,4.79 2.73,9.26 -5.42,1.72 -17.03,-6.84 -22.12,-10.02 -11.67,-7.31 -19.31,-8.61 -16.54,-16.05l4.61 -0.46zm-3.57 -29.44c2.46,-1.64 47.36,19.74 36.19,26.25 -3.3,1.93 -19.07,-8.65 -22.55,-10.65 -8.39,-4.81 -20.98,-10.7 -13.64,-15.6zm45.1 170.8c4.35,-0.75 1.98,2.66 2.88,-3.76l-0.2 -80.84c-0.01,-27.03 1.58,-59.05 -0.21,-85.48 -2.87,-1.72 -17.33,-10.24 -18.87,-12.33 -4.83,-0.8 -13.99,-7.17 -18.92,-10.25 -3.51,-2.19 -15.58,-10.3 -19.06,-11.32l0.09 171.43c6.06,4.36 51.29,27.67 54.29,32.55z"/>
    <path class="fil1" d="M84.63 85.62c0.13,0.19 0.36,0.23 0.44,0.54l48.67 28.51c15.6,9.84 32.77,18.57 49.61,28.27l73.53 42.94c4.78,2.79 6.63,5.18 6.58,12.49l-0.03 135.07c3.42,-0.99 6.13,-3.31 8.34,-4.8 0.17,-16.31 -0.45,-119.16 1.44,-123.41 2.91,-6.55 9.3,-6.8 12.8,-10.99 2.87,-3.43 4.05,-16.34 0.38,-19.47l-169.26 -96.7c-7.63,-4.51 -8.48,-6.46 -16.83,-1.62 -4.32,2.51 -11.81,5.95 -15.67,9.17z"/>
    <path class="fil2" d="M173.01 288.72c4.57,1.05 9.79,5.01 14.11,7.33 4.41,2.37 8.94,5.07 13.48,7.66 8.1,4.61 18.88,11.93 27.27,15.61 1.45,2.2 21.54,13.2 26.29,14.46 -1.9,-13.09 -1.03,-105.44 -0.78,-128.04 0.12,-10.64 -1.8,-11.51 -9.71,-15.82 -11.12,-6.05 -21.61,-11.94 -32.7,-18.61 -21.74,-13.07 -42.95,-24.44 -64.51,-37.24 -7.22,-4.29 -63.15,-35.53 -64.4,-37.57 -3.08,-1.74 -1.67,-1.67 -4.72,-2.15 2.74,3.93 1.34,90.15 1.35,106.82 0.01,37.88 -5.98,30.39 24.84,47.31 10.02,5.5 68.22,38.06 69.48,40.24z"/>
    <path class="fil1" d="M287.04 212.32c2.35,0.08 4.91,2.34 7.45,3.84 2.64,1.56 4.9,2.76 8.15,4.68l31.65 18.74c8.52,5.72 8.07,6.2 17.23,0.85 2.59,-1.51 61.24,-35.87 64.3,-36.12 0.42,-3.24 -0.58,-2.49 -2.89,-3.86l-46.31 -27.08c-16.93,-9.88 -11.66,-6.63 -51.82,16.63l-25.67 14.67c-4.85,2.6 -4.93,2.86 -2.09,7.65z"/>
    <path class="fil1" d="M236.65 335.97c-2.3,-2.43 -27.35,-16.16 -30.69,-16.35 -1.07,11.1 -1.5,9.62 -9.41,14.34 -5.69,3.39 -9.23,7.71 -16.9,3.55 -5.49,-2.98 -9.22,-5.65 -15.55,-9.25 -2.52,-1.43 -4.58,-2.71 -7.41,-4.57 -3.55,-2.32 -4.88,-2.53 -4.86,-7.89l0.06 -23.04c-5.1,1.13 -15.82,8.45 -20.79,11.53 -6.87,4.25 -18.1,9.27 -17.87,14.2 0.21,4.55 14.88,11.35 18.57,13.59 7.66,4.66 13.94,7.86 20.97,12.07 7.35,4.4 13.45,7.38 20.27,11.84 18.59,12.16 16.59,7.31 43.1,-7.87 5.11,-2.93 17.55,-9.3 20.51,-12.15z"/>
    <path class="fil3" d="M84.63 85.62c3.86,-3.22 11.35,-6.66 15.67,-9.17 8.35,-4.84 9.2,-2.89 16.83,1.62l169.26 96.7c3.67,3.13 2.49,16.04 -0.38,19.47 -3.5,4.19 -9.89,4.44 -12.8,10.99 -1.89,4.25 -1.27,107.1 -1.44,123.41 -2.21,1.49 -4.92,3.81 -8.34,4.8l0.03 -135.07c0.05,-7.31 -1.8,-9.7 -6.58,-12.49l-73.53 -42.94c-16.84,-9.7 -34.01,-18.43 -49.61,-28.27l-48.67 -28.51c-0.08,-0.31 -0.31,-0.35 -0.44,-0.54zm331.19 118.69c-3.06,0.25 -61.71,34.61 -64.3,36.12 -9.16,5.35 -8.71,4.87 -17.23,-0.85l-31.65 -18.74c-3.25,-1.92 -5.51,-3.12 -8.15,-4.68 -2.54,-1.5 -5.1,-3.76 -7.45,-3.84 -2.84,-4.79 -2.76,-5.05 2.09,-7.65l25.67 -14.67c40.16,-23.26 34.89,-26.51 51.82,-16.63l46.31 27.08c2.31,1.37 3.31,0.62 2.89,3.86zm-27.09 203.21c5.71,-1.89 12.58,-7.12 17.87,-10.2 27.72,-16.18 24.66,-14.38 24.71,-30.16 0.06,-22.94 0.84,-159.6 -0.56,-164.31 -2.54,-8.55 -41.28,-27.81 -49.82,-32.86 -24.23,-14.34 -23.94,-16.39 -36.56,-9.15 -3.28,1.89 -32.77,19.86 -33.05,20.71 -0.36,0.12 -0.87,-0.14 -1.06,0.36 -0.19,0.46 -0.74,0.25 -0.96,0.41 -1.53,1.07 -0.91,0.55 -1.89,1.76 -3.69,0.34 -7.13,4.07 -10.73,5.15 0.15,-19.21 2.25,-17.7 -12.32,-26.24 -9.39,-5.5 -16.31,-9.53 -25.02,-14.4 -43.81,-24.54 -94.23,-52.92 -137.69,-78.71 -17.29,-10.26 -18.2,-4.9 -40.33,7.74 -14.13,8.07 -12.98,4.73 -12.81,26.34 0.22,26.26 0.19,52.6 0.14,78.87 -0.03,13.14 0.04,26.29 -0.03,39.43 -0.1,18.94 0.66,17.81 13.89,25.25 7.67,4.31 46.44,28.29 49.9,27.94 2.32,2.92 1.94,2.39 5.32,3.51l7.85 5.3c-16.2,13.64 -48.42,18.78 -40.05,42.12 2.01,5.61 43.5,27.65 51.28,32.06 28.28,16.02 27.68,20.7 57.56,2.62 8.26,-5 17.36,-10.91 25.83,-15.53 11.33,-6.18 5.79,-1.7 15.4,-0.45 4.92,0.63 12.85,-2.43 14.46,-5.24l3.04 0.03c-1.83,5.96 -0.7,21.9 -0.7,29.12 0,7.87 -2.54,23.29 2.65,28.04l55.93 33.08c10.4,6.11 10.36,7.98 21.08,0.65 5.11,-3.5 34.7,-20.67 36.67,-23.24zm-215.72 -118.8c-1.26,-2.18 -59.46,-34.74 -69.48,-40.24 -30.82,-16.92 -24.83,-9.43 -24.84,-47.31 -0.01,-16.67 1.39,-102.89 -1.35,-106.82 3.05,0.48 1.64,0.41 4.72,2.15 1.25,2.04 57.18,33.28 64.4,37.57 21.56,12.8 42.77,24.17 64.51,37.24 11.09,6.67 21.58,12.56 32.7,18.61 7.91,4.31 9.83,5.18 9.71,15.82 -0.25,22.6 -1.12,114.95 0.78,128.04 -4.75,-1.26 -24.84,-12.26 -26.29,-14.46 -8.39,-3.68 -19.17,-11 -27.27,-15.61 -4.54,-2.59 -9.07,-5.29 -13.48,-7.66 -4.32,-2.32 -9.54,-6.28 -14.11,-7.33zm146.02 -47.81c1.54,2.09 16,10.61 18.87,12.33 1.79,26.43 0.2,58.45 0.21,85.48l0.2 80.84c-0.9,6.42 1.47,3.01 -2.88,3.76 -3,-4.88 -48.23,-28.19 -54.29,-32.55l-0.09 -171.43c3.48,1.02 15.55,9.13 19.06,11.32 4.93,3.08 14.09,9.45 18.92,10.25zm-9.05 113.93l0.96 0.15c1.3,4.42 2.75,6.52 1.35,11.24 -6.65,0.33 -10,-6.1 -7.92,-12.36 2.39,-1.09 2.14,-2.29 5.61,0.97zm-15.34 2.23c0.39,3.52 0.21,5.86 2.53,7.78 0.28,3.92 2.71,6.01 5.44,8.28 9.3,7.75 22.99,1.89 18.6,-15.15 -4.91,-19.1 -27.66,-20.59 -26.57,-0.91zm-57.99 -21.1c-2.96,2.85 -15.4,9.22 -20.51,12.15 -26.51,15.18 -24.51,20.03 -43.1,7.87 -6.82,-4.46 -12.92,-7.44 -20.27,-11.84 -7.03,-4.21 -13.31,-7.41 -20.97,-12.07 -3.69,-2.24 -18.36,-9.04 -18.57,-13.59 -0.23,-4.93 11,-9.95 17.87,-14.2 4.97,-3.08 15.69,-10.4 20.79,-11.53l-0.06 23.04c-0.02,5.36 1.31,5.57 4.86,7.89 2.83,1.86 4.89,3.14 7.41,4.57 6.33,3.6 10.06,6.27 15.55,9.25 7.67,4.16 11.21,-0.16 16.9,-3.55 7.91,-4.72 8.34,-3.24 9.41,-14.34 3.34,0.19 28.39,13.92 30.69,16.35z"/>
    <path class="fil3" d="M290.33 252.52c-7.34,4.9 5.25,10.79 13.64,15.6 3.48,2 19.25,12.58 22.55,10.65 11.17,-6.51 -33.73,-27.89 -36.19,-26.25zm8.43 32.35c-1.09,-1.38 0.07,-0.53 -1.62,-1.57 -1.88,-1.15 -1.32,-0.69 -3.24,-1.34l-4.61 0.46c-2.77,7.44 4.87,8.74 16.54,16.05 5.09,3.18 16.7,11.74 22.12,10.02 1.41,-4.47 1.69,-6.65 -2.73,-9.26 -4.51,-2.65 -23.94,-14.23 -26.46,-14.36z"/>
    <path class="fil4" d="M310.94 354.99l-0.96 -0.15c-3.47,-3.26 -3.22,-2.06 -5.61,-0.97 -2.08,6.26 1.27,12.69 7.92,12.36 1.4,-4.72 -0.05,-6.82 -1.35,-11.24z"/>
   </g>
  </g>
  <path class="fil5" d="M250.2 193.97l-168.56 41.63c3.34,3.35 9.77,6.23 21.89,12.88 10.02,5.5 68.22,38.06 69.48,40.24 4.57,1.05 9.79,5.01 14.11,7.33 4.41,2.37 8.94,5.07 13.48,7.66 8.1,4.61 18.88,11.93 27.27,15.61 1.45,2.2 21.54,13.2 26.29,14.46 -1.9,-13.09 -1.03,-105.44 -0.78,-128.04 0.07,-6.69 -0.66,-9.52 -3.18,-11.77z"/>
 </g>
</svg>
