<?xml version="1.0" encoding="UTF-8"?>
<!DOCTYPE svg PUBLIC "-//W3C//DTD SVG 1.1//EN" "http://www.w3.org/Graphics/SVG/1.1/DTD/svg11.dtd">
<!-- Creator: CorelDRAW 2021 (64 Bit) -->
<svg xmlns="http://www.w3.org/2000/svg" xml:space="preserve" width="500px" height="500px" version="1.1" style="shape-rendering:geometricPrecision; text-rendering:geometricPrecision; image-rendering:optimizeQuality; fill-rule:evenodd; clip-rule:evenodd"
viewBox="0 0 500 500"
 xmlns:xlink="http://www.w3.org/1999/xlink"
 xmlns:xodm="http://www.corel.com/coreldraw/odm/2003">
 <defs>
  <style type="text/css">
   <![CDATA[
    .fil0 {fill:none}
    .fil5 {fill:#03E6FF}
    .fil3 {fill:#C654FF}
    .fil4 {fill:#FAFAFE}
    .fil2 {fill:#FDFDFD}
    .fil1 {fill:#FF2121}
   ]]>
  </style>
 </defs>
 <g id="Camada_x0020_1">
  <metadata id="CorelCorpID_0Corel-Layer"/>
  <g id="_2768957283856">
   <rect class="fil0" width="500" height="500"/>
   <g>
    <path class="fil1" d="M48.71 285.46c11.05,-8.15 113.75,-67.22 114.25,-68.16 0.92,-1.69 0.16,-87.8 0.13,-97.61 -0.15,-46.56 -4.18,-42.73 18.59,-55.27 20.87,-11.5 13.18,-10.98 49.29,9.87l76.97 44.98c4.09,2.37 13.16,6.23 14.26,8.51 3.74,1.35 3.38,0.91 5.35,3.32 4.49,0.55 50.51,28.06 60.34,33.84 24.39,14.36 27.05,11.93 26.87,35.45 -0.07,10.39 -0.01,20.79 0.01,31.18 0.04,20.59 -0.63,42.06 0.1,62.53 8.69,5.02 16.91,10.55 26.67,16.16 6.67,3.84 24.29,11.69 9.07,23.17 -17.35,13.08 -59.62,35 -79.72,48.68 -12.67,8.62 -39.11,23.91 -53.71,32.5 -5.66,3.33 -22.59,15.14 -26.23,15.05 -3.19,4.01 -22.43,15.71 -34.09,13.04 -8.45,-1.93 -50.42,-27.38 -60.41,-33.09 -3.93,-2.25 -26.45,-14.24 -29.26,-17.9 -4.02,-0.38 -84.24,-48.62 -99.32,-57.1 -11.8,-6.64 -24.15,-11.73 -24.32,-27.81 -0.1,-9.98 -1.48,-16.44 5.16,-21.34z"/>
    <path class="fil2" d="M142.86 338.3c-2.19,-1.25 -3.78,-2.06 -5.3,-4.26l-2.46 -1.38c1.06,-4.27 3.72,-4.59 7.54,-6.46 3.31,-1.63 5.91,-3.28 8.79,-4.95 12.12,-7.03 12.52,-2.27 36.42,11.58 5.64,3.26 14.54,6.61 17.22,11.54 -1.4,3.2 -2.25,3.22 -6.42,5.84 -13.39,8.41 -14.37,11.95 -24.9,5.97 -9.23,-5.24 -21.39,-11.41 -30.89,-17.88zm67.04 -74.99c2.65,1.39 1.68,0.78 3,2.65 4.91,0.71 48.97,27.08 57.54,32.2 5.58,3.19 22.77,11.79 25.73,15.59 4.99,0.87 30.67,16.72 38.31,21.06 8.93,5.07 4.44,7.52 -2.45,11.15 -14.47,7.64 -27.42,16.26 -41.59,24.42 -6.77,3.91 -13.42,-1.49 -18.84,-4.68 -18.01,-10.61 -53.45,-28.72 -67.37,-38.32 -2.53,-1.4 -1.68,-0.86 -3.07,-2.65 -5.48,-0.6 -63.48,-35.86 -75.67,-42.27 -5.7,-2.99 -8.83,-3.72 -9.99,-7.79 2.88,-4.43 38.36,-23.98 45.52,-28.21 3.92,-2.32 8.34,-5.34 13.42,-3.02 3.54,1.63 8.32,4.76 11.75,6.74 8.33,4.81 16.04,8.96 23.71,13.13zm146.65 67.16l-0.48 0.58c-15.11,-8.26 -30.01,-16.24 -45.61,-26.36 -12.92,-8.38 -29.25,-16.43 -44.92,-25.61l-67.48 -38.91c-7.09,-4.07 -14.96,-9.11 -22.2,-12.71 -9.02,-5.62 -18.98,4.26 -31.81,12.08l-60.61 36.68c-5.49,3.23 -28.38,15.02 -30.38,19.54 2.58,6.21 50.42,29.9 59.46,35.42l100.54 59.06c6.52,3.78 36.76,22.15 41.28,22.35 8.62,0.38 15.97,-7.22 21.82,-10.63 14.59,-8.52 97.26,-57.61 98.95,-60.2 -3.72,-2.4 -16.3,-8.31 -18.56,-11.29z"/>
    <path class="fil2" d="M367.69 163.65c-3.75,-0.92 -2.2,0.12 -2.4,-1.32 -8.67,-3.29 -149.34,-85.9 -160.02,-92.57 -4.87,-3.05 -7.46,-5.28 -13.52,-1.7 -2.87,1.69 -9.6,4.61 -10.6,7.61l73.29 42.93c23.83,13.99 48.89,27.47 74.36,42.11 12.01,6.9 23.82,14.46 36.12,21.66 18.23,10.67 23.26,8.79 23.2,35.44 -0.07,38.8 1.06,78.97 -0.11,117.58 4.51,-1.36 14.07,-9.08 15.94,-12.93 2.89,-5.99 1.34,-95.51 1.33,-111.98 0,-8.06 1.87,-20.46 -2.9,-25.15 -5.66,-5.57 -31.81,-17.62 -34.69,-21.68z"/>
    <path class="fil3" d="M302.24 287.06c1.87,2.54 1.34,1.77 4.36,2.94 2.57,3.13 15.55,8.15 17.62,11.63 3.98,0.97 21.04,11.72 26.14,14.63 7.31,4.19 18.89,11.15 27.61,14.29l-0.65 -129.24 -153.06 -88.24c-9.19,-5.27 -15.78,-9.78 -25.19,-15.12l-25.79 -14.07c1.57,9.98 0.61,68.33 0.65,83.5 0.14,51.89 -7.08,42.68 22.75,59.48l66.31 38.24c4.35,2.63 8.06,4.87 12.62,7.59l23.29 13.34c3.51,1.66 0.42,0.67 3.34,1.03z"/>
    <path class="fil1" d="M212.9 265.96c-1.32,-1.87 -0.35,-1.26 -3,-2.65 -7.67,-4.17 -15.38,-8.32 -23.71,-13.13 -3.43,-1.98 -8.21,-5.11 -11.75,-6.74 -5.08,-2.32 -9.5,0.7 -13.42,3.02 -7.16,4.23 -42.64,23.78 -45.52,28.21 1.16,4.07 4.29,4.8 9.99,7.79 12.19,6.41 70.19,41.67 75.67,42.27 1.39,1.79 0.54,1.25 3.07,2.65 13.92,9.6 49.36,27.71 67.37,38.32 5.42,3.19 12.07,8.59 18.84,4.68 14.17,-8.16 27.12,-16.78 41.59,-24.42 6.89,-3.63 11.38,-6.08 2.45,-11.15 -7.64,-4.34 -33.32,-20.19 -38.31,-21.06 -2.96,-3.8 -20.15,-12.4 -25.73,-15.59 -8.57,-5.12 -52.63,-31.49 -57.54,-32.2z"/>
    <path class="fil4" d="M263.64 421.95c-19,1.05 -16.94,-1.69 -30.82,-9.27 -8.52,-4.65 -17.34,-10.3 -25.42,-14.99 -18.05,-10.46 -35.35,-19.2 -51.35,-29.27 -6.95,-4.37 -96.4,-56.81 -103.52,-58.96 0.95,8.29 16.25,14.4 23.44,18.78l81.37 47.02c27.27,15.76 54.99,31.18 81.11,47.33 6.38,3.95 25.73,19.36 25.19,-0.64z"/>
    <path class="fil1" d="M137.56 334.04c1.52,2.2 3.11,3.01 5.3,4.26 9.5,6.47 21.66,12.64 30.89,17.88 10.53,5.98 11.51,2.44 24.9,-5.97 4.17,-2.62 5.02,-2.64 6.42,-5.84 -2.68,-4.93 -11.58,-8.28 -17.22,-11.54 -23.9,-13.85 -24.3,-18.61 -36.42,-11.58 -2.88,1.67 -5.48,3.32 -8.79,4.95 -3.82,1.87 -6.48,2.19 -7.54,6.46l2.46 1.38z"/>
   </g>
  </g>
  <path class="fil5" d="M367.87 195.86l-193.4 15.28c2.2,5.62 8,7.72 22.21,15.72l66.31 38.24c4.35,2.63 8.06,4.87 12.62,7.59l23.29 13.34c3.51,1.66 0.42,0.67 3.34,1.03 1.87,2.54 1.34,1.77 4.36,2.94 2.57,3.13 15.55,8.15 17.62,11.63 3.98,0.97 21.04,11.72 26.14,14.63 7.31,4.19 18.89,11.15 27.61,14.29l-0.65 -129.24 -9.45 -5.45z"/>
 </g>
</svg>
