<?xml version="1.0" encoding="UTF-8"?>
<!DOCTYPE svg PUBLIC "-//W3C//DTD SVG 1.1//EN" "http://www.w3.org/Graphics/SVG/1.1/DTD/svg11.dtd">
<!-- Creator: CorelDRAW 2021 (64 Bit) -->
<svg xmlns="http://www.w3.org/2000/svg" xml:space="preserve" width="1100px" height="240px" version="1.1" style="shape-rendering:geometricPrecision; text-rendering:geometricPrecision; image-rendering:optimizeQuality; fill-rule:evenodd; clip-rule:evenodd"
viewBox="0 0 1100 240"
 xmlns:xlink="http://www.w3.org/1999/xlink"
 xmlns:xodm="http://www.corel.com/coreldraw/odm/2003">
 <defs>
  <style type="text/css">
   <![CDATA[
    .fil0 {fill:none}
    .fil1 {fill:#03E6FF}
    .fil2 {fill:black;fill-rule:nonzero}
   ]]>
  </style>
 </defs>
 <g id="Camada_x0020_1">
  <metadata id="CorelCorpID_0Corel-Layer"/>
  <g id="_2768592907504">
   <rect class="fil0" y="0.3" width="1100" height="239.39"/>
   <g>
    <circle class="fil1" cx="996.39" cy="96.01" r="52.07"/>
    <path class="fil2" d="M130.08 78.41l0 28.44c-8.45,-1.98 -16.02,-2.97 -22.69,-2.97 -14.83,0 -22.23,5.07 -22.23,15.23 0,10.15 7.4,15.23 22.23,15.23 5.73,0 12.11,-0.73 19.16,-2.18 0.1,6.14 1.28,11.35 3.53,15.65l0 12.01c-8.45,1.98 -17.01,2.98 -25.67,2.98 -32.97,0 -49.47,-14.57 -49.47,-43.69 0,-29.11 16.5,-43.67 49.47,-43.67 8.66,0 17.22,0.99 25.67,2.97z"/>
    <path class="fil2" d="M167.15 162.8c-24.49,0 -36.73,-10.52 -36.73,-31.54 0,-21.01 12.24,-31.53 36.73,-31.53 17.2,0 28.37,5.19 33.49,15.55l0 31.97c-5.12,10.36 -16.29,15.55 -33.49,15.55zm0 -47.54c-4.73,0 -7.1,5.32 -7.1,15.94 0,10.66 2.37,16 7.1,16 4.75,0 7.12,-5.34 7.12,-16 0,-10.62 -2.37,-15.94 -7.12,-15.94z"/>
    <path class="fil2" d="M275.64 122.26l0 39.34 -29.63 0 0 -34.79c0,-5.01 -1.64,-7.52 -4.91,-7.52 -2.35,0 -4.66,1.15 -6.94,3.44l0 38.87 -29.63 0 0 -60.68 28.43 0 0 11.86 2.74 0c3.43,-8.3 10.17,-12.44 20.2,-12.44 9.87,0 16.06,4.14 18.55,12.44l2.85 0c3.04,-8.3 9.77,-12.44 20.21,-12.44 10.03,0 16.12,4.68 18.26,14.06l0 47.2 -28.76 0 0 -34.79c0,-5.01 -1.44,-7.52 -4.33,-7.52 -2.53,0 -4.87,0.99 -7.04,2.97z"/>
    <path class="fil2" d="M353.43 148.21c5.52,0 8.29,-5.56 8.29,-16.64 0,-8.99 -2.22,-13.45 -6.69,-13.45 -2.33,0 -4.25,1.13 -5.75,3.43l0 24.88c1.18,1.2 2.57,1.78 4.15,1.78zm-1.78 6.82l-2.37 0 0 31.35 -29.63 0 0 -85.46 29.63 0 0 10.66 2.73 0c3.04,-7.5 8.98,-11.24 17.82,-11.24 8.78,0 14.88,3.8 18.28,11.41l0 27.68c0,3.01 0.27,5.71 0.8,8.12 -3.5,9.76 -10.78,14.64 -21.85,14.64 -7.91,0 -13.05,-2.39 -15.41,-7.16z"/>
    <path class="fil2" d="M433.48 139.8l0 -38.88 23.72 0c0,7.36 0,14.73 0,22.09l5.91 0 0 38.59 -27.85 0 0 -11.85 -2.73 0c-3.03,8.29 -9.77,12.44 -20.21,12.44 -13.55,0 -20.32,-7.59 -20.32,-22.76l0 -38.51 29.63 0 0 34.79c0,5.02 1.64,7.53 4.91,7.53 2.33,0 4.66,-1.16 6.94,-3.44z"/>
    <path class="fil2" d="M498.42 121.07l0 18.79 11.57 0c0.8,4.1 2.22,7.64 4.25,10.64l0 11.1 -21.74 0c-13.84,0 -20.76,-6.65 -20.76,-19.96l0 -20.57 -10.65 0 0 -19.56 13.63 0 5.92 -14.81 17.78 0 0 14.81 15.82 0 0 10.26c-1.79,2.66 -3.1,5.76 -3.94,9.3l-11.88 0z"/>
    <path class="fil2" d="M539.52 134.27c1.39,6.26 6.61,9.37 15.66,9.37 7.12,0 14.53,-1.27 22.22,-3.85l0 18.67c-9.45,2.88 -19.05,4.34 -28.74,4.34 -23.7,0 -35.56,-10.52 -35.56,-31.54 0,-21.01 11.45,-31.53 34.37,-31.53 14.92,0 24.89,4.09 29.93,12.26l0 22.28 -37.88 0zm15.53 -7.86c-0.62,-8.23 -3.15,-12.34 -7.58,-12.34 -4.77,0 -7.49,4.11 -8.11,12.34l15.69 0z"/>
    <path class="fil2" d="M633.3 127.64c-4.53,-1.62 -8.69,-2.43 -12.5,-2.43 -4.3,0 -7.6,1.16 -9.89,3.44l0 32.95 -29.63 0 0 -60.68 23.71 0 0 13.63 2.73 0c3.03,-9.48 8.19,-14.21 15.45,-14.21 3.72,0 7.1,0.93 10.13,2.77l0 24.53z"/>
    <path class="fil2" d="M728.61 76.63l0 22.51 -39.58 0 0 12.28 39.58 0 0 1.74c-2.96,4.77 -4.44,10.8 -4.44,18.1 0,0.5 0.01,0.99 0.03,1.48l-35.17 0 0 28.86 -29.64 0 0 -84.97 69.22 0z"/>
    <path class="fil2" d="M764.79 162.8c-24.5,0 -36.73,-10.52 -36.73,-31.54 0,-21.01 12.23,-31.53 36.73,-31.53 17.2,0 28.36,5.19 33.49,15.55l0 31.97c-5.13,10.36 -16.29,15.55 -33.49,15.55zm0 -47.54c-4.73,0 -7.1,5.32 -7.1,15.94 0,10.66 2.37,16 7.1,16 4.75,0 7.12,-5.34 7.12,-16 0,-10.62 -2.37,-15.94 -7.12,-15.94z"/>
    <path class="fil2" d="M846.25 125.57c-1.58,-0.24 -3.1,-0.36 -4.57,-0.36 -4.3,0 -7.6,1.16 -9.89,3.44l0 32.95 -29.63 0 0 -60.68 23.71 0 0 13.63 2.73 0c3.03,-9.48 8.19,-14.21 15.45,-14.21 3.72,0 7.1,0.93 10.14,2.77l0 5.58c-4.4,4.17 -7.05,9.8 -7.94,16.88z"/>
    <path class="fil2" d="M902.85 121.31c-3.99,-0.88 -7.85,-1.31 -11.59,-1.31 -10.26,0 -15.4,3.74 -15.4,11.2 0,7.51 5.14,11.27 15.4,11.27 3.75,0 7.62,-0.44 11.61,-1.32 1,4.28 2.72,7.92 5.15,10.93l0 8.11c-7.46,1.74 -14.24,2.61 -20.3,2.61 -25.29,0 -37.93,-10.52 -37.93,-31.54 0,-21.01 12.64,-31.53 37.93,-31.53 6.06,0 12.84,0.87 20.3,2.61l0 7.83c-2.45,3.05 -4.17,6.76 -5.17,11.14z"/>
    <path class="fil2" d="M932.13 134.27c1.39,6.26 6.61,9.37 15.65,9.37 7.18,0 14.65,-1.29 22.4,-3.9l0 18.67c-9.51,2.91 -19.16,4.39 -28.91,4.39 -23.71,0 -35.56,-10.52 -35.56,-31.54 0,-21.01 11.45,-31.53 34.37,-31.53 22.51,0 33.78,9.3 33.78,27.91l0 6.63 -41.73 0zm15.53 -7.86c-0.63,-8.23 -3.15,-12.34 -7.58,-12.34 -4.78,0 -7.49,4.11 -8.11,12.34l15.69 0z"/>
    <polygon class="fil2" points="986.8,129.12 993.52,102.2 980.09,102.2 985.55,70.67 1011.47,70.67 999.27,88.86 1012.69,88.86 "/>
   </g>
  </g>
 </g>
</svg>
