<?xml version="1.0" encoding="UTF-8"?>
<!DOCTYPE svg PUBLIC "-//W3C//DTD SVG 1.1//EN" "http://www.w3.org/Graphics/SVG/1.1/DTD/svg11.dtd">
<!-- Creator: CorelDRAW 2021 (64 Bit) -->
<svg xmlns="http://www.w3.org/2000/svg" xml:space="preserve" width="500px" height="500px" version="1.1" style="shape-rendering:geometricPrecision; text-rendering:geometricPrecision; image-rendering:optimizeQuality; fill-rule:evenodd; clip-rule:evenodd"
viewBox="0 0 500 500"
 xmlns:xlink="http://www.w3.org/1999/xlink"
 xmlns:xodm="http://www.corel.com/coreldraw/odm/2003">
 <defs>
  <style type="text/css">
   <![CDATA[
    .fil0 {fill:none}
    .fil3 {fill:#03E6FF}
    .fil1 {fill:#FF2121}
    .fil2 {fill:white}
   ]]>
  </style>
 </defs>
 <g id="Camada_x0020_1">
  <metadata id="CorelCorpID_0Corel-Layer"/>
  <g id="_2551225205024">
   <rect class="fil0" width="500" height="500"/>
   <g>
    <path class="fil1" d="M106.29 121.3c-2.78,3.27 -1.38,144.18 -1.31,170.11 0.05,18.37 10.66,36.27 23.5,44.63 18.43,12 45.91,26.84 65.09,37.77 7.36,4.2 14.62,8.68 21.58,12.5 7.32,4.03 13.73,8.68 21.71,12.35 32.14,14.76 51.68,5.86 58.33,7.28 3.96,0.85 6.48,4.03 12.35,4.56 18.69,1.69 22.85,-8.99 35.71,-14.95 10.38,-7.17 21.66,-13.79 32.4,-19.85 7.17,-4.05 16.69,-8.17 18.89,-13.6 2.25,-5.55 0.11,-10.19 -4.91,-13.46 -7.32,-4.76 -62.85,-36.34 -64.15,-38.6 -0.92,-1.59 -0.34,-52.7 -0.33,-59.13 0.02,-12.2 1.56,-48.33 -0.44,-57.77 -3.85,-18.17 -14.58,-22.03 -28.58,-30.51 -35.02,-21.22 -76.08,-43.67 -111.28,-64.45 -8.97,-5.29 -9.53,-6.36 -21.75,-8.33 -20.64,-3.34 -54.06,9.48 -56.81,31.45zm156.71 101.03c-14.23,-5.69 -59.01,-31.32 -74.26,-40.63 -10.97,-6.7 -24.42,-14.38 -36.59,-21.65 -6.44,-3.84 -11.97,-6.62 -17.7,-11.56l-12.95 -14.23c-2.61,-8.23 -5.03,-12.71 1.27,-19.53 3.92,-4.24 8.71,-7.02 15,-9.37 13.66,-5.08 28.55,-4.95 41.28,2.78 10.93,6.64 20.1,12.58 31.12,18.34l93.45 54.68c12.65,8.64 10.61,22.3 -0.54,31.26 -11.18,8.99 -22.23,10.51 -40.08,9.91zm-142.34 -72.39c0.66,2.87 9.25,9.8 11.43,11.53l12.11 8.13c1.46,1.45 0.13,-0.57 0.97,1.43 9.48,0.47 97.48,61.09 117.46,62.89 11.57,1.56 8.97,-1.24 8.98,12.94l0.03 63.18c-0.03,18.44 0.91,69.8 -0.08,84 -3.43,0.67 -13.09,0.32 -15.65,-1.71 -11.32,-0.4 -79.83,-42.34 -96.89,-52.11 -6.16,-3.53 -12.95,-6.8 -18.65,-10.47 -10.06,-6.48 -21.13,-20.42 -23.82,-34.3l0.01 -148.13c2.69,0.62 1.43,1.27 4.1,2.62z"/>
    <path class="fil1" d="M172.4 324.62c1.66,4.52 7.29,10.55 12.06,10.78 7.62,0.37 9.11,-8.56 7.05,-15.37 -5.08,-16.82 -25.48,-12.79 -19.11,4.59z"/>
    <path class="fil2" d="M116.56 147.32l-0.01 148.13c2.69,13.88 13.76,27.82 23.82,34.3 5.7,3.67 12.49,6.94 18.65,10.47 17.06,9.77 85.57,51.71 96.89,52.11 2.56,2.03 12.22,2.38 15.65,1.71 0.99,-14.2 0.05,-65.56 0.08,-84l-0.03 -63.18c-0.01,-14.18 2.59,-11.38 -8.98,-12.94 -19.98,-1.8 -107.98,-62.42 -117.46,-62.89 -0.22,-0.51 -0.29,-0.76 -0.3,-0.87 -0.09,-0.03 -0.28,-0.18 -0.67,-0.56l-12.11 -8.13c-2.18,-1.73 -10.77,-8.66 -11.43,-11.53 -2.67,-1.35 -1.41,-2 -4.1,-2.62zm55.84 177.3c-6.37,-17.38 14.03,-21.41 19.11,-4.59 2.06,6.81 0.57,15.74 -7.05,15.37 -4.77,-0.23 -10.4,-6.26 -12.06,-10.78z"/>
    <path class="fil3" d="M184.24 355.06c26.81,15.78 63.64,36.99 71.67,37.27 2.56,2.03 12.22,2.38 15.65,1.71 0.99,-14.2 0.05,-65.56 0.08,-84l-0.03 -63.18c-0.01,-14.18 2.59,-11.38 -8.98,-12.94 -12.08,-1.09 -48.98,-23.65 -78.39,-41.44l0 117.99c3.03,1.55 5.79,4.68 7.27,9.56 2.06,6.81 0.57,15.74 -7.05,15.37l-0.22 -0.01 0 19.67z"/>
    <path class="fil2" d="M179.05 108.14c-12.73,-7.73 -27.62,-7.86 -41.28,-2.78 -6.29,2.35 -11.08,5.13 -15,9.37 -6.3,6.82 -3.88,11.3 -1.27,19.53l12.95 14.23c5.73,4.94 11.26,7.72 17.7,11.56 12.17,7.27 25.62,14.95 36.59,21.65 15.25,9.31 60.03,34.94 74.26,40.63 17.85,0.6 28.9,-0.92 40.08,-9.91 11.15,-8.96 13.19,-22.62 0.54,-31.26l-93.45 -54.68c-11.02,-5.76 -20.19,-11.7 -31.12,-18.34z"/>
   </g>
  </g>
 </g>
</svg>
