<?xml version="1.0" encoding="UTF-8"?>
<!DOCTYPE svg PUBLIC "-//W3C//DTD SVG 1.1//EN" "http://www.w3.org/Graphics/SVG/1.1/DTD/svg11.dtd">
<!-- Creator: CorelDRAW 2021 (64 Bit) -->
<svg xmlns="http://www.w3.org/2000/svg" xml:space="preserve" width="500px" height="500px" version="1.1" style="shape-rendering:geometricPrecision; text-rendering:geometricPrecision; image-rendering:optimizeQuality; fill-rule:evenodd; clip-rule:evenodd"
viewBox="0 0 500 500"
 xmlns:xlink="http://www.w3.org/1999/xlink"
 xmlns:xodm="http://www.corel.com/coreldraw/odm/2003">
 <defs>
  <style type="text/css">
   <![CDATA[
    .fil0 {fill:none}
    .fil2 {fill:#03E6FF}
    .fil3 {fill:#FF2121}
    .fil1 {fill:white}
   ]]>
  </style>
 </defs>
 <g id="Camada_x0020_1">
  <metadata id="CorelCorpID_0Corel-Layer"/>
  <g id="_2551308583552">
   <rect class="fil0" width="500" height="500"/>
   <g>
    <path class="fil1" d="M309.7 194.71l-12.52 -7.27c-4.55,-2.74 -9.01,-5.64 -14.14,-8.17 -6.08,-3.01 -9.6,-5.34 -14.62,-7.87 -14.97,-7.53 -7.23,-15.32 -18.15,-26.59 -7.84,-8.08 -17.57,-13.38 -29.27,-15.17 -38.96,-5.94 -54.8,14.11 -80.63,31.13 -9.13,6.01 -17.74,12.39 -26.29,18.5 -8.89,6.34 -16.96,12.54 -26.44,19.1 -6.35,4.4 -21.19,13.8 -24.83,19.85 -3.2,5.33 -2.88,13.37 0.57,18.17 3.98,5.55 11.67,4.6 19.12,4.21 18.87,-0.98 40.16,-5.44 58.62,-9 18.15,-3.5 19.73,-7.93 35.38,2.74 4.54,3.1 9.72,6.14 13.75,8.57 9.13,5.52 19.01,10.98 28.71,16.89 35.27,21.45 27.77,8 22.33,58.58 -1.24,21.02 1.82,31.08 20.42,34.61 32.04,6.07 51.18,-19.18 70.72,-36.61 9.47,-8.44 18.5,-16.96 28.6,-26.08 18.55,-16.74 50.34,-37.59 28.23,-64.09 -8.08,-9.7 -22.13,-15.03 -36.22,-17.21 -9.37,-1.45 -16.62,1.38 -24.51,-3.32 -4.34,-2.58 -12.91,-8.43 -17.74,-10 -0.15,-0.15 -0.19,-0.34 -1.09,-0.97zm-118.8 -21.55c-7.4,4.06 -13.22,10.48 -18.01,10.24 -4.43,-0.22 -6.68,-2.97 -6.95,-7.56 3.1,-6.71 12.96,-8.21 16.16,-13.25 -2.46,-3.07 -6.52,-2.19 -7.81,-6.76 -2.52,-8.96 5.4,-10.29 16.45,-3.66 4.95,2.97 3.95,2.83 8.72,-0.17 5.28,-3.34 13.16,-10.52 18.44,-4.62 6.7,7.48 -7.36,11.12 -10.11,14.38 2.35,4.84 17.7,5.82 12.04,14.65 -5.12,7.96 -13.82,0.71 -18.76,-2.27 -4.4,-2.66 -5.2,-3.71 -10.17,-0.98zm148.51 63.98c0.08,-4.29 2.99,-5.57 4.46,-7.39 5.33,-1.21 9.49,-3.51 15.37,-0.88 3.5,1.56 7.27,4.88 6.76,9.88 -0.45,4.54 -4.58,7.85 -8.7,8.79 -6.15,1.4 -9.75,-0.27 -14.29,-2.01 -1.09,-1.77 -3.67,-4.35 -3.6,-8.39zm-93.05 -8.66c4.3,0.98 9.25,6.41 6.79,11.25 -5.5,10.81 -27.81,4.31 -21.36,-6.56 2.54,-4.27 8.71,-6.02 14.57,-4.69zm-31.89 -15.28c3.98,14.08 -20.84,15.1 -22.85,4.91 -2.65,-13.47 20.27,-14.04 22.85,-4.91zm82.33 50.35c8.03,-3.02 11.68,0.1 18.1,1.88 0.09,0.92 -1.13,1.38 0.81,0.56 0.9,3.09 2.96,5.26 1.4,9.45 -3.19,8.54 -17.9,9.36 -23.95,3.89 -5.7,-5.15 -1.6,-13.81 3.64,-15.78zm3.5 -11.29c-8.09,-4.7 -7.79,-14.18 2.02,-17.77 5.93,-1.25 9.12,-1.89 14.58,1.11 6.21,3.41 4.86,5.22 6.22,12.3 -3.53,2.08 -2.76,5.07 -9.61,6.68 -4.9,1.16 -9.9,-0.4 -13.21,-2.32zm33.12 8.71c1.34,-2.95 3.24,-3.39 6.59,-4.74 15.95,-6.44 28.12,14.88 12.21,19.6 -11.04,3.28 -23.3,-4.92 -18.8,-14.86z"/>
    <path class="fil2" d="M309.7 194.71l-12.52 -7.27c-3.04,-1.83 -6.05,-3.74 -9.25,-5.56l-86.76 67.47c5.86,3.39 11.86,6.84 17.79,10.45 35.27,21.45 27.77,8 22.33,58.58 -1.24,21.02 1.82,31.08 20.42,34.61 32.04,6.07 51.18,-19.18 70.72,-36.61 9.47,-8.44 18.5,-16.96 28.6,-26.08 18.55,-16.74 50.34,-37.59 28.23,-64.09 -8.08,-9.7 -22.13,-15.03 -36.22,-17.21 -9.37,-1.45 -16.62,1.38 -24.51,-3.32 -4.34,-2.58 -12.91,-8.43 -17.74,-10 -0.15,-0.15 -0.19,-0.34 -1.09,-0.97zm29.71 42.43c0.08,-4.29 2.99,-5.57 4.46,-7.39 5.33,-1.21 9.49,-3.51 15.37,-0.88 3.5,1.56 7.27,4.88 6.76,9.88 -0.45,4.54 -4.58,7.85 -8.7,8.79 -6.15,1.4 -9.75,-0.27 -14.29,-2.01 -1.09,-1.77 -3.67,-4.35 -3.6,-8.39zm-93.05 -8.66c4.3,0.98 9.25,6.41 6.79,11.25 -5.5,10.81 -27.81,4.31 -21.36,-6.56 2.54,-4.27 8.71,-6.02 14.57,-4.69zm50.44 35.07c8.03,-3.02 11.68,0.1 18.1,1.88 0.09,0.92 -1.13,1.38 0.81,0.56 0.9,3.09 2.96,5.26 1.4,9.45 -3.19,8.54 -17.9,9.36 -23.95,3.89 -5.7,-5.15 -1.6,-13.81 3.64,-15.78zm3.5 -11.29c-8.09,-4.7 -7.79,-14.18 2.02,-17.77 5.93,-1.25 9.12,-1.89 14.58,1.11 6.21,3.41 4.86,5.22 6.22,12.3 -3.53,2.08 -2.76,5.07 -9.61,6.68 -4.9,1.16 -9.9,-0.4 -13.21,-2.32zm33.12 8.71c1.34,-2.95 3.24,-3.39 6.59,-4.74 15.95,-6.44 28.12,14.88 12.21,19.6 -11.04,3.28 -23.3,-4.92 -18.8,-14.86z"/>
    <path class="fil3" d="M310.79 195.68c4.83,1.57 13.4,7.42 17.74,10 7.89,4.7 15.14,1.87 24.51,3.32 14.09,2.18 28.14,7.51 36.22,17.21 22.11,26.5 -9.68,47.35 -28.23,64.09 -10.1,9.12 -19.13,17.64 -28.6,26.08 -19.54,17.43 -38.68,42.68 -70.72,36.61 -18.6,-3.53 -21.66,-13.59 -20.42,-34.61 5.44,-50.58 12.94,-37.13 -22.33,-58.58 -9.7,-5.91 -19.58,-11.37 -28.71,-16.89 -4.03,-2.43 -9.21,-5.47 -13.75,-8.57 -15.65,-10.67 -17.23,-6.24 -35.38,-2.74 -18.46,3.56 -39.75,8.02 -58.62,9 -7.45,0.39 -15.14,1.34 -19.12,-4.21 -3.45,-4.8 -3.77,-12.84 -0.57,-18.17 3.64,-6.05 18.48,-15.45 24.83,-19.85 9.48,-6.56 17.55,-12.76 26.44,-19.1 8.55,-6.11 17.16,-12.49 26.29,-18.5 25.83,-17.02 41.67,-37.07 80.63,-31.13 11.7,1.79 21.43,7.09 29.27,15.17 10.92,11.27 3.18,19.06 18.15,26.59 5.02,2.53 8.54,4.86 14.62,7.87 5.13,2.53 9.59,5.43 14.14,8.17l12.52 7.27c0.9,0.63 0.94,0.82 1.09,0.97zm23.36 -33.35c7.27,-5.26 14.95,-11.18 24.66,-14.4 28.25,-9.35 74.3,8.35 35.64,48.16 -15.03,15.48 -5.93,6.14 -42.8,1.28 -6.1,-0.81 -12.96,-0.14 -17.11,-2.61l-18.39 -11.45c-1.22,-0.78 -2.04,-1.25 -2.96,-2l-1.7 -1.68c-0.06,-0.27 -0.27,-0.31 -0.4,-0.47l23.06 -16.83zm-200.25 -13.37c-1.88,2.68 -2.67,2.72 -5.66,4.69l-40.04 28.67c-15.09,10.51 -36,21.57 -40.5,37.59 -1.89,6.74 -2.51,29.8 -1.18,37.51 2.03,11.83 4.9,19.64 14.23,24.71 9.48,5.16 19.13,7.36 32.22,5.82 19.68,-2.31 45.3,-8.06 63.03,-15.26 6.83,-2.78 10.01,0.21 14.51,2.47 10.24,5.15 35.97,21.42 48.94,28.93 15.77,9.13 8.66,8.83 8.5,18.38 -0.05,3.15 0.17,6.74 0.16,9.99 -0.01,6.36 -0.07,12.71 -0.1,19.06 -0.15,41.52 28.8,51.25 68.86,48.88 1.94,-0.99 13.72,-3.5 17.8,-4.87 14.55,-4.91 31.53,-16.67 44.58,-24.99l57.02 -35.75c12.01,-6.64 24.58,-12.1 20.58,-24.99 -1.81,-5.81 -7.14,-8.2 -12.03,-11.34 -5.82,-3.74 -11.17,-3.76 -11.41,-11.5 -0.5,-15.77 1.06,-29.68 -2.49,-43.95 -1.4,-5.64 -3.34,-11.27 -6.6,-16.76 -7.12,-11.95 -8.49,-7.39 -9.68,-13.12 1.77,-2.67 6.75,-6.69 8.83,-8.83 8.23,-8.46 16.17,-19.06 17.86,-31.9 2.75,-20.83 -12.7,-32.62 -30.01,-37 -32.96,-8.34 -49.33,6.16 -73.67,23.64 -26.43,19 -13.91,16.49 -40.79,2.22 -5.05,-2.67 -5.57,-2.3 -7.65,-8.22 -6.82,-19.43 -21.77,-29.82 -43.61,-34.85 -52.23,-12.05 -80.02,28.5 -91.7,30.77z"/>
    <path class="fil3" d="M182.1 162.59c-3.2,5.04 -13.06,6.54 -16.16,13.25 0.27,4.59 2.52,7.34 6.95,7.56 4.79,0.24 10.61,-6.18 18.01,-10.24 4.97,-2.73 5.77,-1.68 10.17,0.98 4.94,2.98 13.64,10.23 18.76,2.27 5.66,-8.83 -9.69,-9.81 -12.04,-14.65 2.75,-3.26 16.81,-6.9 10.11,-14.38 -5.28,-5.9 -13.16,1.28 -18.44,4.62 -4.77,3 -3.77,3.14 -8.72,0.17 -11.05,-6.63 -18.97,-5.3 -16.45,3.66 1.29,4.57 5.35,3.69 7.81,6.76z"/>
    <path class="fil3" d="M302.32 234.49c-9.81,3.59 -10.11,13.07 -2.02,17.77 3.31,1.92 8.31,3.48 13.21,2.32 6.85,-1.61 6.08,-4.6 9.61,-6.68 -1.36,-7.08 -0.01,-8.89 -6.22,-12.3 -5.46,-3 -8.65,-2.36 -14.58,-1.11z"/>
    <path class="fil3" d="M340.01 256.23c-3.35,1.35 -5.25,1.79 -6.59,4.74 -4.5,9.94 7.76,18.14 18.8,14.86 15.91,-4.72 3.74,-26.04 -12.21,-19.6z"/>
    <path class="fil3" d="M315.71 265.99c-1.94,0.82 -0.72,0.36 -0.81,-0.56 -6.42,-1.78 -10.07,-4.9 -18.1,-1.88 -5.24,1.97 -9.34,10.63 -3.64,15.78 6.05,5.47 20.76,4.65 23.95,-3.89 1.56,-4.19 -0.5,-6.36 -1.4,-9.45z"/>
    <path class="fil3" d="M343.87 229.75c-1.47,1.82 -4.38,3.1 -4.46,7.39 -0.07,4.04 2.51,6.62 3.6,8.39 4.54,1.74 8.14,3.41 14.29,2.01 4.12,-0.94 8.25,-4.25 8.7,-8.79 0.51,-5 -3.26,-8.32 -6.76,-9.88 -5.88,-2.63 -10.04,-0.33 -15.37,0.88z"/>
    <path class="fil3" d="M191.62 218.11c2.01,10.19 26.83,9.17 22.85,-4.91 -2.58,-9.13 -25.5,-8.56 -22.85,4.91z"/>
    <path class="fil3" d="M253.15 239.73c2.46,-4.84 -2.49,-10.27 -6.79,-11.25 -5.86,-1.33 -12.03,0.42 -14.57,4.69 -6.45,10.87 15.86,17.37 21.36,6.56z"/>
   </g>
  </g>
 </g>
</svg>
