<?xml version="1.0" encoding="UTF-8"?>
<!DOCTYPE svg PUBLIC "-//W3C//DTD SVG 1.1//EN" "http://www.w3.org/Graphics/SVG/1.1/DTD/svg11.dtd">
<!-- Creator: CorelDRAW 2021 (64 Bit) -->
<svg xmlns="http://www.w3.org/2000/svg" xml:space="preserve" width="500px" height="500px" version="1.1" style="shape-rendering:geometricPrecision; text-rendering:geometricPrecision; image-rendering:optimizeQuality; fill-rule:evenodd; clip-rule:evenodd"
viewBox="0 0 500 500"
 xmlns:xlink="http://www.w3.org/1999/xlink"
 xmlns:xodm="http://www.corel.com/coreldraw/odm/2003">
 <defs>
  <style type="text/css">
   <![CDATA[
    .fil0 {fill:none}
    .fil1 {fill:#03E6FF}
    .fil2 {fill:#FDFDFD}
    .fil3 {fill:#FF2121}
   ]]>
  </style>
 </defs>
 <g id="Camada_x0020_1">
  <metadata id="CorelCorpID_0Corel-Layer"/>
  <g id="_2551219324672">
   <rect class="fil0" width="500" height="500"/>
   <g>
    <path class="fil1" d="M234.24 320.97c0.88,1.06 0.19,0.72 1.65,1.59 1.98,1.19 0.9,0.59 2.98,1.1 2.68,4.24 83.32,48.51 92.91,52.68 -1.61,-18.47 -0.11,-43.09 -0.17,-62.34 -0.03,-7.91 1.13,-89.91 -1,-93.45 -1.26,-2.11 -15.78,-9.74 -19.36,-11.78 -7.09,-4.05 -12.81,-7.23 -19.87,-11.3l-140.18 -80.81c-6.83,-4.05 -13.52,-7.74 -19.62,-11.56 -6.09,-3.8 -14.56,-9.17 -19.99,-11.78l0.64 79.45c-0.01,13.45 -0.05,26.9 -0.04,40.35 0.02,11.45 -2.4,30.75 2.45,39.45 1.6,0.67 0.61,-1.18 2.15,2.34 5.8,0.88 22.63,12.82 29.06,16.51 5.99,3.44 84.2,49.31 88.39,49.55z"/>
    <path class="fil2" d="M336.06 213.68c8.62,3.57 5.77,25.42 5.77,36.13l0.02 127.44c3.83,-1.53 15.08,-9.87 16.67,-12.55 3.92,-6.61 2.32,-18.55 2.32,-26.86l0 -118.3c-0.02,-20.72 -3.67,-21.13 -26.03,-33.57 -33.5,-20.15 -77.56,-43.08 -107.46,-61.98 -18.96,-11.98 -58.82,-34.63 -79.87,-46.73 -6.62,-3.81 -8.64,-4.79 -15.12,-0.99 -4.16,2.43 -10.39,5.37 -13.5,8.47l40.21 24.03c41.49,23.3 80.68,47.1 122.93,71.4 8.58,4.94 16.95,9.94 27.22,15.9 6.08,3.53 24.21,12.35 26.84,17.61z"/>
    <path class="fil3" d="M299.04 369.81l0.83 3.38c-4.12,0.83 -8.49,4.79 -12.1,6.96 -39.89,23.92 -31.73,26.12 -64.77,6.65l-48.5 -27.59c-8.74,-4.86 -22.38,-10.07 -20.62,-16.49 0.98,-3.56 27.84,-18.07 35.15,-22.72 15.49,-9.86 15.03,-4.82 15.02,10.51 -0.01,20.23 -3.63,16.3 20.62,29.1 16.26,8.59 22.92,15.67 33.13,3.43 3.39,-4.08 1.48,-8.27 2.81,-13.65 6.68,-0.29 33.21,20.89 38.43,20.42zm-182.25 -114.9c-1.54,-3.52 -0.55,-1.67 -2.15,-2.34 -4.85,-8.7 -2.43,-28 -2.45,-39.45 -0.01,-13.45 0.03,-26.9 0.04,-40.35l-0.64 -79.45c5.43,2.61 13.9,7.98 19.99,11.78 6.1,3.82 12.79,7.51 19.62,11.56l140.18 80.81c7.06,4.07 12.78,7.25 19.87,11.3 3.58,2.04 18.1,9.67 19.36,11.78 2.13,3.54 0.97,85.54 1,93.45 0.06,19.25 -1.44,43.87 0.17,62.34 -9.59,-4.17 -90.23,-48.44 -92.91,-52.68 -2.08,-0.51 -1,0.09 -2.98,-1.1 -1.46,-0.87 -0.77,-0.53 -1.65,-1.59 -4.19,-0.24 -82.4,-46.11 -88.39,-49.55 -6.43,-3.69 -23.26,-15.63 -29.06,-16.51zm219.27 -41.23c-2.63,-5.26 -20.76,-14.08 -26.84,-17.61 -10.27,-5.96 -18.64,-10.96 -27.22,-15.9 -42.25,-24.3 -81.44,-48.1 -122.93,-71.4l-40.21 -24.03c3.11,-3.1 9.34,-6.04 13.5,-8.47 6.48,-3.8 8.5,-2.82 15.12,0.99 21.05,12.1 60.91,34.75 79.87,46.73 29.9,18.9 73.96,41.83 107.46,61.98 22.36,12.44 26.01,12.85 26.03,33.57l0 118.3c0,8.31 1.6,20.25 -2.32,26.86 -1.59,2.68 -12.84,11.02 -16.67,12.55l-0.02 -127.44c0,-10.71 2.85,-32.56 -5.77,-36.13zm-94.46 -91.76c-2.26,-2.93 -11.09,-7.37 -14.68,-9.48l-76.67 -44.42c-6.9,-4.01 -12.31,-4.66 -19.31,-0.54 -4.84,2.84 -12.97,6.28 -15.35,9.58 -15.3,2.6 -13.84,19.04 -13.83,26.94l-0.02 125.63c-0.01,31.43 4,31.1 34.94,48.35l52.77 30.52c-2.73,3.53 -36.89,19.87 -41.71,25.2 -2.87,3.17 -7.12,17.87 2.5,24.2 6.99,4.59 14.96,8.06 21.94,12.01 30.71,17.4 57.12,32.28 85.18,48.67 11.83,6.91 30.75,22.27 48.68,14.68 10.04,-4.26 50.99,-29.78 62.77,-37.09 14.76,-9.15 43.46,-19.23 21.46,-31.71 -5.77,-3.27 -16.32,-9.29 -20.54,-12.86 -1.15,-41.35 0.02,-90.93 -0.06,-133.89 -0.03,-17.95 -0.72,-22.21 -14.37,-30.96l-56.51 -32.5c-9.8,-5.64 -52.12,-31.66 -57.19,-32.33z"/>
    <path class="fil2" d="M299.87 373.19l-0.83 -3.38c-5.22,0.47 -31.75,-20.71 -38.43,-20.42 -1.33,5.38 0.58,9.57 -2.81,13.65 -10.21,12.24 -16.87,5.16 -33.13,-3.43 -24.25,-12.8 -20.63,-8.87 -20.62,-29.1 0.01,-15.33 0.47,-20.37 -15.02,-10.51 -7.31,4.65 -34.17,19.16 -35.15,22.72 -1.76,6.42 11.88,11.63 20.62,16.49l48.5 27.59c33.04,19.47 24.88,17.27 64.77,-6.65 3.61,-2.17 7.98,-6.13 12.1,-6.96z"/>
   </g>
  </g>
 </g>
</svg>
