<?xml version="1.0" encoding="UTF-8"?>
<!DOCTYPE svg PUBLIC "-//W3C//DTD SVG 1.1//EN" "http://www.w3.org/Graphics/SVG/1.1/DTD/svg11.dtd">
<!-- Creator: CorelDRAW 2021 (64 Bit) -->
<svg xmlns="http://www.w3.org/2000/svg" xml:space="preserve" width="500px" height="500px" version="1.1" style="shape-rendering:geometricPrecision; text-rendering:geometricPrecision; image-rendering:optimizeQuality; fill-rule:evenodd; clip-rule:evenodd"
viewBox="0 0 500 500"
 xmlns:xlink="http://www.w3.org/1999/xlink"
 xmlns:xodm="http://www.corel.com/coreldraw/odm/2003">
 <defs>
  <style type="text/css">
   <![CDATA[
    .fil0 {fill:none}
    .fil3 {fill:#03E6FF}
    .fil2 {fill:#FBFCFE}
    .fil1 {fill:#FF2121}
   ]]>
  </style>
 </defs>
 <g id="Camada_x0020_1">
  <metadata id="CorelCorpID_0Corel-Layer"/>
  <rect class="fil0" width="500" height="500"/>
  <g id="_2550681586816">
   <path class="fil1" d="M190.83 245.86c6.48,-1.69 14.34,1.09 16.56,7.32 2.5,7.02 -0.44,14.91 -2.62,20.38 -4.12,10.36 -12.64,24.25 -22.82,25.82 -32.69,5.06 -18.09,-46.5 8.88,-53.52zm-56.61 -96.54l3.19 -10.22c2.37,-8.07 6.77,-17.96 12.47,-23.92 6.58,-6.9 19.09,-16.88 31.89,-18.37l-1.28 3.57c-4.55,1.3 -11.65,22.45 -13.06,28.3 -3.48,14.53 -2.24,23.73 -3.02,39.09 -9.63,1.69 -18.61,7.74 -25.85,11.52 -9.07,4.74 -1.46,-21.96 -4.34,-29.97zm98.57 -57.43c-3.11,-3.33 -13.28,-5.13 -19.14,-6.37 -5.59,-1.19 -20.14,0 -23.14,-1.34 1.07,-1.79 17.88,-8.68 21.35,-9.75 80.39,-24.81 161.05,104.09 169.3,171.23 2.62,21.23 3,38.16 2.92,60.46 -0.04,9.17 0.47,46.07 -0.7,54.28 -0.55,3.9 -1.04,2.43 -2.41,5.94 -5.87,2.02 -6.86,14.1 -22.41,2.97 -1.2,-15.42 -0.16,-34.4 -0.24,-50.23 -0.23,-49.49 -2.08,-79.65 -26.13,-124.93 -12.28,-23.11 -23.7,-41.93 -40.96,-59.61 -15.06,-15.42 -6.87,-9.21 -25.9,-24.21 -5.7,-4.5 -24.74,-18.01 -32.54,-18.44zm34.62 291.94c-2.51,-20.3 6.21,-47.19 16.34,-63.51 7.14,-11.51 14.23,-20.78 24.18,-29.3 6.29,-5.39 25.86,-19.19 36.15,-18.12 0.21,5.85 0.56,10.85 0.86,16.19 0.42,7.52 2.01,11.25 -3.28,14.37 -2.2,3.49 -38.83,27.31 -46.65,76.58 -2.72,17.12 1.17,27.14 1.79,37.49 -1.24,-0.05 -10.69,-4.44 -16.67,-8.69 -8.18,-5.81 -11.54,-15.52 -12.72,-25.01zm-6.05 22.95c0.43,0.53 1.37,2.45 1.76,2.93 11.14,13.67 9.25,9.29 29.26,20.99 30.97,18.11 48.93,14.73 77.65,-7.9 9.84,-7.76 20.33,-19.08 26.26,-28 17.24,-25.91 39.01,-80.59 4.54,-108.18 -4.15,-3.32 -3.17,-4.13 -3.24,-10.46 -0.28,-25.21 -4.42,-30.79 -6.54,-48.6l0.38 -0.23c-2.03,-2.41 -5.58,-17.15 -7.05,-21.54 -2.22,-6.65 -5.63,-14.31 -8.01,-20.08 -9.06,-21.88 -28.46,-52.94 -43.66,-70.65 -26.6,-31 -67.29,-64.04 -114.25,-56.22 -14.96,2.5 -29.21,10.02 -40.41,17.28 -7.6,4.92 -6.59,6.64 -16.26,12.06 -6.62,3.72 -14.76,11.17 -16.98,11.39 -5.17,8.86 -11.78,7.37 -20.12,37.42 -6.3,22.7 -1.04,49.73 -1.81,52.29 -0.75,2.46 -10.79,11.72 -13.34,15.16 -13.08,17.6 -23.38,35 -27.07,58.64 -2.42,15.49 -2.66,36.76 3.68,49.89 5.17,10.71 23.56,17.65 34.06,23.7 15.74,9.08 33.06,25.57 62.35,10.47 2.8,-1.45 6.51,-3.1 9.43,-5.19 4.1,-2.97 6.98,-5.49 11.08,-8.1 13.43,-8.52 33.63,-39.48 39.46,-54.92 9.05,-23.96 13.23,-60.46 -4.26,-79.94 -6.84,-7.62 -11.43,-9.25 -19.28,-13.94 -4.55,-2.72 -17.88,-10.91 -22.32,-12.06 -1.1,-3.72 -17.82,-8.39 -17.83,-8.4 -5.16,-3.95 -3.1,-59.98 28.73,-66.11 17.28,-3.33 54.01,24.76 63.74,34.18 28.67,27.76 44.13,53.26 58.99,88.44 3.2,7.6 11.54,29.2 11.51,38.15 -43.99,9.16 -79.2,55.63 -84.94,97.63 -1.32,9.68 -2.58,17.21 -1.75,26.98 0.98,11.5 2.81,13.55 6.24,22.92zm-136.35 -80.61l-1.77 -1.71c-1.14,-0.77 -1.69,-0.93 -3.18,-1.73 -21.44,-11.45 -25.98,-15.49 -26.37,-37.67 -0.21,-11.85 1.39,-22.34 4.35,-32.37 7.11,-24.06 26.44,-49.8 46.84,-62.44 9.88,-6.12 28.51,-16.11 40.31,-9.53l12.17 6.02c1.24,1.33 2.37,1.66 3.12,3.55 -2.91,1.48 -7.87,1.66 -19.54,7.83 -28.16,14.89 -49.13,46.96 -55.94,79.22 -3.17,15.02 -3.26,35.88 2.85,48.22 -1.09,0.76 1.83,1.07 -2.84,0.61z"/>
   <path class="fil2" d="M296.8 417.53c-0.62,-10.35 -4.51,-20.37 -1.79,-37.49 7.82,-49.27 44.45,-73.09 46.65,-76.58 5.29,-3.12 3.7,-6.85 3.28,-14.37 -0.3,-5.34 -0.65,-10.34 -0.86,-16.19 -10.29,-1.07 -29.86,12.73 -36.15,18.12 -9.95,8.52 -17.04,17.79 -24.18,29.3 -10.13,16.32 -18.85,43.21 -16.34,63.51 0.5,4.02 1.43,9.58 3.47,13.96 3.25,8.21 18.94,19.78 25.92,19.74zm-171.79 -91.36c4.67,0.46 1.75,0.15 2.84,-0.61 -6.11,-12.34 -6.02,-33.2 -2.85,-48.22 6.81,-32.26 27.78,-64.33 55.94,-79.22 11.67,-6.17 16.63,-6.35 19.54,-7.83 -0.75,-1.89 -1.88,-2.22 -3.12,-3.55l-12.17 -6.02c-11.8,-6.58 -30.43,3.41 -40.31,9.53 -20.4,12.64 -39.73,38.38 -46.84,62.44 -2.96,10.03 -4.56,20.52 -4.35,32.37 0.39,22.18 4.93,26.22 26.37,37.67 1.49,0.8 2.04,0.96 3.18,1.73l1.77 1.71z"/>
   <path class="fil3" d="M134.22 149.32c2.88,8.01 -4.73,34.71 4.34,29.97 7.24,-3.78 16.22,-9.83 25.85,-11.52 0.78,-15.36 -0.46,-24.56 3.02,-39.09 1.41,-5.85 8.51,-27 13.06,-28.3l1.28 -3.57c-12.8,1.49 -25.31,11.47 -31.89,18.37 -5.7,5.96 -10.1,15.85 -12.47,23.92l-3.19 10.22zm56.61 96.54c-26.97,7.02 -41.57,58.58 -8.88,53.52 10.18,-1.57 18.7,-15.46 22.82,-25.82 2.18,-5.47 5.12,-13.36 2.62,-20.38 -2.22,-6.23 -10.08,-9.01 -16.56,-7.32zm41.96 -153.97c7.8,0.43 26.84,13.94 32.54,18.44 19.03,15 10.84,8.79 25.9,24.21 17.26,17.68 28.68,36.5 40.96,59.61 24.05,45.28 25.9,75.44 26.13,124.93 0.08,15.83 -0.96,34.81 0.24,50.23 15.55,11.13 16.54,-0.95 22.41,-2.97 1.37,-3.51 1.86,-2.04 2.41,-5.94 1.17,-8.21 0.66,-45.11 0.7,-54.28 0.08,-22.3 -0.3,-39.23 -2.92,-60.46 -8.25,-67.14 -88.91,-196.04 -169.3,-171.23 -3.47,1.07 -20.28,7.96 -21.35,9.75 3,1.34 17.55,0.15 23.14,1.34 5.86,1.24 16.03,3.04 19.14,6.37z"/>
  </g>
 </g>
</svg>
