<?xml version="1.0" encoding="UTF-8"?>
<!DOCTYPE svg PUBLIC "-//W3C//DTD SVG 1.1//EN" "http://www.w3.org/Graphics/SVG/1.1/DTD/svg11.dtd">
<!-- Creator: CorelDRAW 2021 (64 Bit) -->
<svg xmlns="http://www.w3.org/2000/svg" xml:space="preserve" width="500px" height="500px" version="1.1" style="shape-rendering:geometricPrecision; text-rendering:geometricPrecision; image-rendering:optimizeQuality; fill-rule:evenodd; clip-rule:evenodd"
viewBox="0 0 500 500"
 xmlns:xlink="http://www.w3.org/1999/xlink"
 xmlns:xodm="http://www.corel.com/coreldraw/odm/2003">
 <defs>
  <style type="text/css">
   <![CDATA[
    .fil0 {fill:none}
    .fil3 {fill:#03E6FF}
    .fil1 {fill:#FDFDFE}
    .fil2 {fill:#FF2121}
   ]]>
  </style>
 </defs>
 <g id="Camada_x0020_1">
  <metadata id="CorelCorpID_0Corel-Layer"/>
  <g id="_2550586142848">
   <rect class="fil0" width="500" height="500"/>
   <g>
    <path class="fil1" d="M82.35 225.2c2.9,3.08 15.07,9.6 19.08,11.88l156.76 93.52c8.21,5.04 13.94,10.12 23.11,7.37 6.23,-1.86 30.99,-18.8 39.48,-23.52 8.68,-4.84 76.38,-43.96 78.17,-47.13 -0.48,-4.5 -5.74,-6.02 -8.86,-7.89 -3.75,-2.23 -6.61,-3.95 -10.61,-6.37 -4.36,-2.63 -18.24,-11.73 -22.31,-11.71 0.44,12.77 2.57,31.51 -5.33,38.53 -4.54,4.05 -12.72,2.21 -15.97,-1.84 -5.61,-7 -3.56,-30.07 -3.58,-40.69l-0.03 -12.48 -61.81 -36.04c-8.05,-4.55 -59.29,-35.02 -63.34,-35.7 -6.72,-1.12 -12.71,4.05 -17.27,6.81 -5.26,3.19 -10.19,5.86 -15.36,9.03l-28.38 17.02c-0.15,0.09 -0.36,0.2 -0.51,0.29 -0.45,0.27 -1.29,0.81 -1.95,1.23 -10.41,6.67 -20.19,11.79 -30.93,18.49 -5.86,3.65 -10.38,6.41 -15.18,9.07 -3.84,2.12 -13.22,6.78 -15.18,10.13z"/>
    <path class="fil2" d="M82.35 225.2c1.96,-3.35 11.34,-8.01 15.18,-10.13 4.8,-2.66 9.32,-5.42 15.18,-9.07 10.74,-6.7 20.52,-11.82 30.93,-18.49 0.66,-0.42 1.5,-0.96 1.95,-1.23 0.15,-0.09 0.36,-0.2 0.51,-0.29l28.38 -17.02c5.17,-3.17 10.1,-5.84 15.36,-9.03 4.56,-2.76 10.55,-7.93 17.27,-6.81 4.05,0.68 55.29,31.15 63.34,35.7l61.81 36.04 0.03 12.48c0.02,10.62 -2.03,33.69 3.58,40.69 3.25,4.05 11.43,5.89 15.97,1.84 7.9,-7.02 5.77,-25.76 5.33,-38.53 4.07,-0.02 17.95,9.08 22.31,11.71 4,2.42 6.86,4.14 10.61,6.37 3.12,1.87 8.38,3.39 8.86,7.89 -1.79,3.17 -69.49,42.29 -78.17,47.13 -8.49,4.72 -33.25,21.66 -39.48,23.52 -9.17,2.75 -14.9,-2.33 -23.11,-7.37l-156.76 -93.52c-4.01,-2.28 -16.18,-8.8 -19.08,-11.88zm182.3 126.76l0.13 42.1 -3.24 0.09c-0.26,-1.62 -9.49,-6.38 -11.96,-7.98 -23.72,-15.32 -53.17,-30.85 -76.69,-45.52 -2.92,-1.82 -11.01,-5.34 -11.8,-7.44 -5.22,-1.79 -24.05,-13.33 -30.22,-17.03 -9.59,-5.76 -19.82,-11.49 -29.03,-17.1 -34.88,-21.22 -29.17,-9.1 -29.27,-62.85 3.79,0.46 23.85,12.89 27.92,15.56 17.77,11.65 35.9,20.95 53.8,32 8.35,5.15 17.75,10.08 26.58,15.89 6.44,3.28 15.54,9.52 21.37,13.08l42.59 25.45c7.1,4.07 15.26,7.99 19.82,13.75zm101.11 34.06c1.75,-1.03 3.93,-2.21 5.52,-3.25 2.83,-1.84 3.33,-1.82 5.47,-4.47 2.68,0.34 21,-11.94 24.65,-14.12 5.32,-3.16 32.1,-18.12 35.08,-23.28 8.3,-14.42 -9.18,-20.59 -23.71,-30.65 -1.02,-10.56 -0.09,-23.92 -0.25,-34.86 -0.29,-20.34 -13.45,-25.44 -33.42,-36.6 -7.12,-3.99 -13.98,-8.22 -21.6,-12.78 -0.86,-6.45 -0.27,-83 -0.28,-96.39 0,-10.87 1.82,-20.11 -6.45,-25.23 -8.87,-5.49 -17.69,2.35 -18.43,10.68 -1.06,11.94 0.32,76.88 -0.07,95.26 -5.1,-1.27 -24.27,-13.62 -28.88,-16.43 -18.15,-11.03 -38.99,-22.13 -56.68,-32.5 -4.66,-2.73 -8.72,-5.45 -13.6,-8.12 -2.93,-1.6 -4.41,-2.78 -7.05,-4.27 -6.33,-3.54 -4.87,-1.83 -6.39,-4.9l-1.07 0.24c-7.68,-2.26 -11.62,-4.81 -21.12,-1.93 -5.34,1.61 -11.97,7.02 -15.14,7.41 -1.08,-18.21 0.35,-37.56 -0.16,-55.89 -0.61,-22.32 -24.24,-22.28 -26.55,-7.14 -1.11,7.26 -0.35,19.64 -0.34,27.43 0.07,62.24 4.8,48.51 -19.18,63.35 -13.32,8.24 -60.06,34.35 -68.17,42.79 -6.51,6.79 -6.49,10.37 -6.54,21.03 -0.04,9.18 -0.02,18.37 0.01,27.54 0.03,9.97 0.89,14.64 6.22,21.37 3.92,4.96 10.87,8.98 15.56,11.92 5.88,3.69 12.15,6.9 18.1,10.26 50.92,28.77 105.17,62.01 156.04,91.94 6.98,4.11 27.08,17.8 35.85,19.04 10.25,1.45 15,-2.03 21.43,-5.91 14.06,-8.5 38.72,-24.6 51.15,-31.54z"/>
    <path class="fil3" d="M140 302.15c-3.95,-10.88 9.99,-9.06 12.22,-2.18 3.03,9.34 -9.65,9.28 -12.22,2.18zm37.65 13.59c-1,8.92 -0.79,8.37 -9.35,7.86 -3.72,-4.44 -6.46,-7.26 -1.6,-13.33 6.15,-0.51 7.97,3 10.95,5.47zm-16.56 17.47c0.79,2.1 8.88,5.62 11.8,7.44 23.52,14.67 52.97,30.2 76.69,45.52 2.47,1.6 11.7,6.36 11.96,7.98l3.24 -0.09 -0.13 -42.1c-4.56,-5.76 -12.72,-9.68 -19.82,-13.75l-42.59 -25.45c-5.83,-3.56 -14.93,-9.8 -21.37,-13.08 -8.83,-5.81 -18.23,-10.74 -26.58,-15.89 -17.9,-11.05 -36.03,-20.35 -53.8,-32 -4.07,-2.67 -24.13,-15.1 -27.92,-15.56 0.1,53.75 -5.61,41.63 29.27,62.85 9.21,5.61 19.44,11.34 29.03,17.1 6.17,3.7 25,15.24 30.22,17.03zm-34.76 -40.67c-7.99,2.93 -14.92,-5.83 -10.07,-10.98 4.19,-4.46 13.48,1.01 10.07,10.98zm-25.91 -13.93c-12.98,0.85 -11.78,-11.9 -7.24,-13.07 3.07,-0.8 7.17,1.81 8.46,3.76 2.98,4.49 0.59,6.5 -1.22,9.31z"/>
    <path class="fil2" d="M168.3 323.6c8.56,0.51 8.35,1.06 9.35,-7.86 -2.98,-2.47 -4.8,-5.98 -10.95,-5.47 -4.86,6.07 -2.12,8.89 1.6,13.33z"/>
    <path class="fil2" d="M140 302.15c2.57,7.1 15.25,7.16 12.22,-2.18 -2.23,-6.88 -16.17,-8.7 -12.22,2.18z"/>
    <path class="fil2" d="M100.42 278.61c1.81,-2.81 4.2,-4.82 1.22,-9.31 -1.29,-1.95 -5.39,-4.56 -8.46,-3.76 -4.54,1.17 -5.74,13.92 7.24,13.07z"/>
    <path class="fil2" d="M126.33 292.54c3.41,-9.97 -5.88,-15.44 -10.07,-10.98 -4.85,5.15 2.08,13.91 10.07,10.98z"/>
   </g>
  </g>
 </g>
</svg>
