<?xml version="1.0" encoding="UTF-8"?>
<!DOCTYPE svg PUBLIC "-//W3C//DTD SVG 1.1//EN" "http://www.w3.org/Graphics/SVG/1.1/DTD/svg11.dtd">
<!-- Creator: CorelDRAW 2021 (64 Bit) -->
<svg xmlns="http://www.w3.org/2000/svg" xml:space="preserve" width="500px" height="500px" version="1.1" style="shape-rendering:geometricPrecision; text-rendering:geometricPrecision; image-rendering:optimizeQuality; fill-rule:evenodd; clip-rule:evenodd"
viewBox="0 0 500 500"
 xmlns:xlink="http://www.w3.org/1999/xlink"
 xmlns:xodm="http://www.corel.com/coreldraw/odm/2003">
 <defs>
  <style type="text/css">
   <![CDATA[
    .fil0 {fill:none}
    .fil2 {fill:#03E6FF}
    .fil4 {fill:#FAFAFC}
    .fil3 {fill:#FDFDFE}
    .fil1 {fill:#FF2121}
   ]]>
  </style>
 </defs>
 <g id="Camada_x0020_1">
  <metadata id="CorelCorpID_0Corel-Layer"/>
  <g id="_2551235198016">
   <rect class="fil0" width="500" height="500"/>
   <g>
    <path class="fil1" d="M73.38 240.01c2.76,-1.66 5.1,-2.59 7.86,-4.13 3.27,-1.83 5.07,-3.54 9.3,-3.39 5.07,20.85 6.19,13.18 8.64,20.51 -2.56,3.97 -19.11,9.08 -25.08,8.51 -0.68,-1.27 -0.25,0.12 -0.72,-2.09l0 -19.41zm123.64 -109.65c3.71,0.9 130.23,75.22 137.92,79.7 7.37,4.3 15.62,8.99 23.15,13.29l21.59 12.85c0.05,-0.12 0.22,0.23 0.3,0.36 3.98,1.15 14.17,6.31 10.69,12.25 -2.13,3.61 -10.26,4.95 -12.51,11.96 -3.64,11.35 0.29,120.44 -1.5,144.25 -3.94,0.24 -12.63,-5.41 -15.63,-7.21 -4.95,-2.99 -9.21,-5.36 -14.38,-8.34l-85.44 -50.65c-9.01,-5.34 -19.81,-12.14 -28.94,-17.24 -9.67,-5.4 -19.62,-11.17 -28.51,-16.78 -9.13,-5.76 -20,-11.16 -28.65,-16.65l-57.91 -33.71c-10.43,-5.52 -13.95,-16.55 -13.84,-31.41 0.21,-30.16 0.59,-60.57 0.36,-90.72 -0.1,-13.03 1.21,-30.24 7.24,-38.4 2.94,-3.98 8.44,-8.57 14.41,-5.47 8.8,4.57 69.86,39.82 71.65,41.92zm-123.24 69.99c3.46,-1.82 13.47,-7.98 15.97,-8.32 0.75,4.62 1.71,19.6 -0.58,22.61 -1.52,2 -11.57,8.25 -16,8.49l0.61 -22.78zm-0.35 -48.6c0.01,-5.76 -1.49,-16.5 1.99,-19.76l12.55 -5.89c1.53,-0.14 1.28,0 2.27,0.22l-0.07 48.14c-1.66,1.27 -15.46,9.95 -16.68,10.1l-0.06 -32.81zm332.76 220.44c-0.88,-30.11 -0.11,-61.41 -0.09,-91.65 0.01,-24.96 3.69,-40.91 -16.43,-52.31 -2.45,-1.39 -5.03,-2.73 -7.16,-4.06l-124.64 -72.41c-20.11,-11.92 -38.56,-22.49 -58.35,-33.87 -19.96,-11.49 -38.93,-23.12 -58.45,-33.88 -12.15,-6.7 -19.43,-12.22 -34.63,-3.53 -8.56,4.9 -9.7,13.07 -12.02,22.18 -1.75,6.86 -9.5,7.81 -21.4,13.11 -15.69,6.98 -11.11,38.19 -11.1,58.66 0,30.44 0.48,61.15 0,91.56 -0.34,21.13 19.97,8.73 28.41,4.88 20.38,-9.31 12.93,-9.6 31.36,0.21 9.29,4.95 20.25,11.35 29.21,16.89 9.99,6.17 18.92,11.17 29.11,17.03l174.36 102.81c7.19,4.28 20.79,14.26 30.53,15.79 14.27,2.25 23.86,-5.87 33.96,-11.34 5.29,-2.87 9.37,-4.98 14.65,-7.92 5.99,-3.35 7.04,-10.41 1.91,-15.26 -5.11,-4.82 -22.35,-12.76 -29.23,-16.89z"/>
    <path class="fil1" d="M193.98 239.67c3.31,1.54 23.4,16.49 26.25,19.82 -0.97,12.16 -17.24,20.95 -25.74,14 -2.41,-1.97 -3.1,-13.69 -3.4,-18.07 -0.48,-7.16 -3.89,-13.31 2.89,-15.75zm-37.49 2.8c1.57,-2.36 7.35,-7.05 10.76,-7.87 2.7,1.58 0.87,0.35 2.95,2.52 1.02,1.06 1.68,1.83 2.85,2.84 2.26,1.96 4.07,2.34 5,5.52 0.83,2.84 1.86,16.24 1.5,19.77 -7.62,-2.34 -15.94,-12.71 -20.82,-19.17 -1.63,-2.17 -1.26,-1.13 -2.24,-3.61zm65.58 1.42c-3.57,-1.1 -18.66,-11.56 -21.06,-15.03 -6.88,-9.92 9.85,-19.41 12.41,-19.21 1.8,5.36 4.06,9.2 5.39,15.02 1.61,7.05 2.61,11.21 3.26,19.22zm-50.08 -34.01c8.04,-4.7 18.24,14.69 11.86,19.3 -7,5.06 -18.12,-15.64 -11.86,-19.3zm-20.25 -9.4c7.83,6.36 4.88,5.56 7.02,14.04 0.44,1.73 1.15,3.07 1.44,5.27 -2.22,2.97 -5.9,6.91 -10.77,7.73 -0.73,-0.69 -0.64,-0.52 -1.42,-1.4l-4.19 -7.21c-3.79,-7.94 -9.52,-21.23 -7.87,-30.41 2.29,0.48 12.93,9.65 15.79,11.98zm-12.79 -26.05c0.81,-12.27 17.18,-19.53 30.16,-13.99 0.84,4.52 1.58,30.6 0.24,33.43 -1.99,1.41 2.28,1.12 -2.85,0.93 -2.2,-0.08 -2.59,-1.57 -5.73,-4.16 -8.02,-6.61 -17.78,-11.93 -21.82,-16.21zm58.91 26.62c-3.9,2.29 -3.88,3.37 -6.31,5.38 -2.49,-4.1 -3.18,-3.35 -6.37,-6.15 -3.5,-3.05 -2.19,-4.18 -2.53,-9.59 -0.44,-7.1 -1.02,-16.04 -1.27,-23.25 6.16,0.26 23.13,22.25 23.66,28.05 -2.1,3.24 -4.05,3.73 -7.18,5.56zm-71.41 12.25c0.13,0.18 0.25,0.44 0.32,0.57l1.27 3.07c5.16,15.62 13.35,31.65 23.97,43.94 10.17,11.74 29.63,25.04 45.53,27.15 7.97,0.53 12.54,1.02 19.3,-2.24 15.61,-7.55 20.03,-35.2 17.23,-52.7 -6.04,-37.6 -27.46,-61.6 -28.74,-66.07 -7.1,-6.66 -16.79,-14.7 -25.74,-18.8 -12.17,-5.56 -24.53,-5.56 -36.78,-0.7 -32.13,12.75 -16.27,61.87 -16.36,65.78z"/>
    <path class="fil1" d="M347.39 332.9c3.18,2.87 3.33,4.1 0.16,8.08 -1.61,2 -3.35,3.58 -6.07,5.29 -5.95,3.75 -10.69,3.24 -18.13,0.99 -1.11,-3.35 -4.8,-24.95 -4.79,-28.64l2.43 -1.25c0.26,-0.1 2.05,-0.66 2.37,-0.72 3.71,-0.68 6.4,2.25 11.14,5.61 4.55,3.21 9.19,7.3 12.89,10.64zm-38.32 7.54c-4.65,-0.87 -16.9,-12.64 -20.62,-16.67 -6.61,-7.17 -10.75,-8.6 4.36,-19.81 0.68,0.59 0.49,0.37 1.25,1.28l1.98 2.84c1.1,1.44 1.89,2.13 3.31,3.23 3.26,2.55 5.39,2.42 6.22,6.55 1.2,5.97 3.3,16.57 3.5,22.58zm19.19 -51.21c3.68,-2.2 11.7,-8.58 14.77,-9.15 5.39,5.79 12.43,31.3 11.29,41.64 -1.8,-0.33 -21.57,-16.22 -23.36,-20.23 -0.86,-1.92 -2.56,-9.81 -2.7,-12.26zm-24.45 -8.35c8.56,-4.33 19.69,20.28 9.98,25.54 -5.34,2.9 -14.37,-12.37 -14.59,-18.66 -0.15,-4.56 1.76,-5.43 4.61,-6.88zm-30.84 16.99c-3.23,-8.5 -9.84,-23.14 -6.66,-34.94 3.88,-0.34 9.17,5.33 14.8,9.82 9.04,7.19 5.21,7.22 5.4,12.46 0.05,1.25 0.56,3.17 0.69,5.24 -4.42,1.99 -8.86,6.96 -14.23,7.42zm-3.32 -50.54c0.42,-3.85 5.06,-8.24 8.23,-10.08 4.19,-2.43 10.46,-2.92 16.46,-2.04 7.26,1.06 8.94,1.98 8.98,9.65 0.04,5.4 1.05,13.83 -0.23,18.67 -2.17,0.67 -2.59,0.19 -4.88,1.17 -5.95,2.53 -1.46,5.05 -16.91,-7.47 -4.19,-3.39 -7.39,-6.94 -11.65,-9.9zm44.38 -4.01c6.36,0.65 18.8,15.64 21.9,23.46 -0.71,0.83 -0.29,0.39 -1.31,1.26 -4.84,4.13 -13.95,11.36 -17.2,3.26 -0.31,-0.75 -3.2,-25.76 -3.39,-27.98zm-37.17 87.94c3.52,1.94 9,8.93 13.32,12.7 7.47,6.53 8.61,6.29 15.06,10.79 6.33,4.43 10.99,6.04 19.43,7.14 11.79,1.54 13.41,-1.18 22.4,-3.79 3.45,-3.37 9.86,-6.83 13.65,-14.49 1.05,-2.13 1.74,-5.16 2.98,-6.37 1.62,-17.64 4.48,-22.94 -1.31,-42.86 -7.92,-27.28 -23.5,-54.9 -49.01,-68.44l-15.47 -6.76c-28.65,-1.42 -43.65,17.67 -44.26,45.15 -0.79,36.16 21.84,59.67 23.21,66.93z"/>
    <path class="fil2" d="M197.54 288.03c2.89,1.86 4.19,0.97 6.83,1.6l33.8 18.89c8.64,4.55 31.63,20.89 38.69,22.74 -1.37,-7.26 -24,-30.77 -23.21,-66.93 0.61,-27.48 15.61,-46.57 44.26,-45.15 -2.88,-3.96 -7.2,-3.36 -9.11,-7.04 -3.07,-0.26 -16.71,-8.7 -21.04,-11.14 -16.53,-9.3 -34.29,-20.2 -51.07,-29.03 -4.12,-2.17 -6.29,-4.58 -11.36,-4.95 1.28,4.47 22.7,28.47 28.74,66.07 2.8,17.5 -1.62,45.15 -17.23,52.7 -6.76,3.26 -11.33,2.77 -19.3,2.24z"/>
    <path class="fil3" d="M363.7 337.24c-1.24,1.21 -1.93,4.24 -2.98,6.37 -3.79,7.66 -10.2,11.12 -13.65,14.49 -8.99,2.61 -10.61,5.33 -22.4,3.79 -8.44,-1.1 -13.1,-2.71 -19.43,-7.14 -6.45,-4.5 -7.59,-4.26 -15.06,-10.79 -4.32,-3.77 -9.8,-10.76 -13.32,-12.7 -7.06,-1.85 -30.05,-18.19 -38.69,-22.74l-33.8 -18.89c-2.64,-0.63 -3.94,0.26 -6.83,-1.6 -15.9,-2.11 -35.36,-15.41 -45.53,-27.15 -10.62,-12.29 -18.81,-28.32 -23.97,-43.94l-1.27 -3.07c-0.07,-0.13 -0.19,-0.39 -0.32,-0.57 0.09,-3.91 -15.77,-53.03 16.36,-65.78 12.25,-4.86 24.61,-4.86 36.78,0.7 8.95,4.1 18.64,12.14 25.74,18.8 5.07,0.37 7.24,2.78 11.36,4.95 16.78,8.83 34.54,19.73 51.07,29.03 4.33,2.44 17.97,10.88 21.04,11.14 1.91,3.68 6.23,3.08 9.11,7.04l15.47 6.76c25.51,13.54 41.09,41.16 49.01,68.44 5.79,19.92 2.93,25.22 1.31,42.86zm-166.68 -206.88c-1.79,-2.1 -62.85,-37.35 -71.65,-41.92 -5.97,-3.1 -11.47,1.49 -14.41,5.47 -6.03,8.16 -7.34,25.37 -7.24,38.4 0.23,30.15 -0.15,60.56 -0.36,90.72 -0.11,14.86 3.41,25.89 13.84,31.41l57.91 33.71c8.65,5.49 19.52,10.89 28.65,16.65 8.89,5.61 18.84,11.38 28.51,16.78 9.13,5.1 19.93,11.9 28.94,17.24l85.44 50.65c5.17,2.98 9.43,5.35 14.38,8.34 3,1.8 11.69,7.45 15.63,7.21 1.79,-23.81 -2.14,-132.9 1.5,-144.25 2.25,-7.01 10.38,-8.35 12.51,-11.96 3.48,-5.94 -6.71,-11.1 -10.69,-12.25 -0.08,-0.13 -0.25,-0.48 -0.3,-0.36l-21.59 -12.85c-7.53,-4.3 -15.78,-8.99 -23.15,-13.29 -7.69,-4.48 -134.21,-78.8 -137.92,-79.7z"/>
    <path class="fil2" d="M73.43 151.75l0.06 32.81c1.22,-0.15 15.02,-8.83 16.68,-10.1l0.07 -48.14c-0.99,-0.22 -0.74,-0.36 -2.27,-0.22l-12.55 5.89c-3.48,3.26 -1.98,14 -1.99,19.76z"/>
    <path class="fil2" d="M138.95 174.43c4.04,4.28 13.8,9.6 21.82,16.21 3.14,2.59 3.53,4.08 5.73,4.16 5.13,0.19 0.86,0.48 2.85,-0.93 1.34,-2.83 0.6,-28.91 -0.24,-33.43 -12.98,-5.54 -29.35,1.72 -30.16,13.99z"/>
    <path class="fil2" d="M269.65 247.33c4.26,2.96 7.46,6.51 11.65,9.9 15.45,12.52 10.96,10 16.91,7.47 2.29,-0.98 2.71,-0.5 4.88,-1.17 1.28,-4.84 0.27,-13.27 0.23,-18.67 -0.04,-7.67 -1.72,-8.59 -8.98,-9.65 -6,-0.88 -12.27,-0.39 -16.46,2.04 -3.17,1.84 -7.81,6.23 -8.23,10.08z"/>
    <path class="fil2" d="M191.09 255.42c0.3,4.38 0.99,16.1 3.4,18.07 8.5,6.95 24.77,-1.84 25.74,-14 -2.85,-3.33 -22.94,-18.28 -26.25,-19.82 -6.78,2.44 -3.37,8.59 -2.89,15.75z"/>
    <path class="fil2" d="M318.56 318.62c-0.01,3.69 3.68,25.29 4.79,28.64 7.44,2.25 12.18,2.76 18.13,-0.99 2.72,-1.71 4.46,-3.29 6.07,-5.29 3.17,-3.98 3.02,-5.21 -0.16,-8.08 -3.7,-3.34 -8.34,-7.43 -12.89,-10.64 -4.74,-3.36 -7.43,-6.29 -11.14,-5.61 -0.32,0.06 -2.11,0.62 -2.37,0.72l-2.43 1.25z"/>
    <path class="fil2" d="M328.26 289.23c0.14,2.45 1.84,10.34 2.7,12.26 1.79,4.01 21.56,19.9 23.36,20.23 1.14,-10.34 -5.9,-35.85 -11.29,-41.64 -3.07,0.57 -11.09,6.95 -14.77,9.15z"/>
    <path class="fil2" d="M191.55 206.43c2.43,-2.01 2.41,-3.09 6.31,-5.38 3.13,-1.83 5.08,-2.32 7.18,-5.56 -0.53,-5.8 -17.5,-27.79 -23.66,-28.05 0.25,7.21 0.83,16.15 1.27,23.25 0.34,5.41 -0.97,6.54 2.53,9.59 3.19,2.8 3.88,2.05 6.37,6.15z"/>
    <path class="fil2" d="M73.38 240.01l0 19.41c0.47,2.21 0.04,0.82 0.72,2.09 5.97,0.57 22.52,-4.54 25.08,-8.51 -2.45,-7.33 -3.57,0.34 -8.64,-20.51 -4.23,-0.15 -6.03,1.56 -9.3,3.39 -2.76,1.54 -5.1,2.47 -7.86,4.13z"/>
    <path class="fil2" d="M149.43 227.52c4.87,-0.82 8.55,-4.76 10.77,-7.73 -0.29,-2.2 -1,-3.54 -1.44,-5.27 -2.14,-8.48 0.81,-7.68 -7.02,-14.04 -2.86,-2.33 -13.5,-11.5 -15.79,-11.98 -1.65,9.18 4.08,22.47 7.87,30.41l4.19 7.21c0.78,0.88 0.69,0.71 1.42,1.4z"/>
    <path class="fil2" d="M272.97 297.87c5.37,-0.46 9.81,-5.43 14.23,-7.42 -0.13,-2.07 -0.64,-3.99 -0.69,-5.24 -0.19,-5.24 3.64,-5.27 -5.4,-12.46 -5.63,-4.49 -10.92,-10.16 -14.8,-9.82 -3.18,11.8 3.43,26.44 6.66,34.94z"/>
    <path class="fil2" d="M309.07 340.44c-0.2,-6.01 -2.3,-16.61 -3.5,-22.58 -0.83,-4.13 -2.96,-4 -6.22,-6.55 -1.42,-1.1 -2.21,-1.79 -3.31,-3.23l-1.98 -2.84c-0.76,-0.91 -0.57,-0.69 -1.25,-1.28 -15.11,11.21 -10.97,12.64 -4.36,19.81 3.72,4.03 15.97,15.8 20.62,16.67z"/>
    <path class="fil2" d="M222.07 243.89c-0.65,-8.01 -1.65,-12.17 -3.26,-19.22 -1.33,-5.82 -3.59,-9.66 -5.39,-15.02 -2.56,-0.2 -19.29,9.29 -12.41,19.21 2.4,3.47 17.49,13.93 21.06,15.03z"/>
    <path class="fil2" d="M73.78 200.35l-0.61 22.78c4.43,-0.24 14.48,-6.49 16,-8.49 2.29,-3.01 1.33,-17.99 0.58,-22.61 -2.5,0.34 -12.51,6.5 -15.97,8.32z"/>
    <path class="fil2" d="M335.93 266.78c-3.1,-7.82 -15.54,-22.81 -21.9,-23.46 0.19,2.22 3.08,27.23 3.39,27.98 3.25,8.1 12.36,0.87 17.2,-3.26 1.02,-0.87 0.6,-0.43 1.31,-1.26z"/>
    <path class="fil2" d="M158.73 246.08c4.88,6.46 13.2,16.83 20.82,19.17 0.36,-3.53 -0.67,-16.93 -1.5,-19.77 -0.93,-3.18 -2.74,-3.56 -5,-5.52 -1.17,-1.01 -1.83,-1.78 -2.85,-2.84 -2.08,-2.17 -0.25,-0.94 -2.95,-2.52 -3.41,0.82 -9.19,5.51 -10.76,7.87 0.98,2.48 0.61,1.44 2.24,3.61z"/>
    <path class="fil4" d="M303.81 280.88c-2.85,1.45 -4.76,2.32 -4.61,6.88 0.22,6.29 9.25,21.56 14.59,18.66 9.71,-5.26 -1.42,-29.87 -9.98,-25.54z"/>
    <path class="fil4" d="M171.99 209.88c-6.26,3.66 4.86,24.36 11.86,19.3 6.38,-4.61 -3.82,-24 -11.86,-19.3z"/>
   </g>
  </g>
 </g>
</svg>
