<?xml version="1.0" encoding="UTF-8"?>
<!DOCTYPE svg PUBLIC "-//W3C//DTD SVG 1.1//EN" "http://www.w3.org/Graphics/SVG/1.1/DTD/svg11.dtd">
<!-- Creator: CorelDRAW 2021 (64 Bit) -->
<svg xmlns="http://www.w3.org/2000/svg" xml:space="preserve" width="500px" height="500px" version="1.1" style="shape-rendering:geometricPrecision; text-rendering:geometricPrecision; image-rendering:optimizeQuality; fill-rule:evenodd; clip-rule:evenodd"
viewBox="0 0 500 500"
 xmlns:xlink="http://www.w3.org/1999/xlink"
 xmlns:xodm="http://www.corel.com/coreldraw/odm/2003">
 <defs>
  <style type="text/css">
   <![CDATA[
    .fil0 {fill:none}
    .fil3 {fill:#03E6FF}
    .fil1 {fill:#FDFDFD}
    .fil2 {fill:#FF2121}
   ]]>
  </style>
 </defs>
 <g id="Camada_x0020_1">
  <metadata id="CorelCorpID_0Corel-Layer"/>
  <g id="_2551210667648">
   <rect class="fil0" width="500" height="500"/>
   <g>
    <path class="fil1" d="M141.89 136.83c-0.02,-11.36 -2.44,-31.25 13.97,-22.28 12.21,6.66 116.94,67.56 123.77,73.38 9.07,7.72 6.77,18.33 6.78,32.35l-0.01 133.88c0.01,10.22 1.84,21.37 -4.61,23.57 -7.63,2.6 -25.89,-10.81 -32.35,-14.68l-80.25 -46.31c-24.38,-13.05 -27.34,-14.33 -27.38,-35.94l0.08 -143.97zm-7.41 197.74c2.07,1.28 0.77,0.47 2.75,2.2 5.48,4.78 31.99,20.7 37.54,23.85 28.3,16.08 55.5,30.73 83.21,47.94 9.4,5.84 37.01,27.08 39.89,5.13l0.25 -131.06c0,-21.7 0.02,-43.41 -0.01,-65.11 -0.02,-10.13 1.53,-22.29 -2.64,-30.79 -4.52,-9.21 -10.23,-9.66 -15.12,-13.21 -1.64,-1.2 -1.27,-1.11 -1.53,-1.49l-36.75 -20.85c-21.34,-13.32 -49.72,-28.49 -71.88,-41.81 -5.54,-3.33 -11.74,-7.51 -17.59,-10.8 -27.63,-15.51 -22.84,-7.85 -22.94,22.66l-0.05 187.08c0.04,20.35 -1.71,13.29 4.87,26.26z"/>
    <path class="fil1" d="M211.1 120.93c2.67,1.47 1.68,0.82 2.98,2.67 6.13,1.11 52.94,30.22 61.13,34.78 35.88,20 32.95,23.53 32.98,64.65l-0.01 144.89c0,14.84 -1.03,33.77 0.17,48.1 5.54,-2.73 16.78,-10.34 18.88,-14.96 2.63,-5.82 1.57,-25.12 1.56,-33.14l0.14 -174.24c-0.03,-37.07 1.12,-29.73 -46.87,-57.65l-88.97 -50.52c-3.62,-2.06 -6.65,-3.69 -11.09,-6.24 -2.59,-1.49 -8.74,-5.44 -11.18,-6.22 -8.17,-2.61 -20.4,4.68 -25.09,8.75 2.33,3.68 27.1,16.65 32.2,19.76 10.65,6.48 22.07,12.19 33.17,19.37z"/>
    <path class="fil2" d="M180.11 310.85l-1.24 -0.56c-4.99,-1.95 -12.58,-6.97 -17.28,-9.79 -9.11,-5.48 -9.46,-4.04 -9.58,-16.94 -0.36,-37.15 -1.3,-130.34 1.68,-158.03 2.79,0.78 11.68,6.62 14.78,8.48 33.63,20.18 66.26,39.42 101.21,58.44 7.75,4.21 6.59,5.2 6.56,15.9 -0.02,7.64 -0.03,15.29 -0.04,22.93 -0.03,38.32 -1.59,104.01 0.66,136.78 -3.66,-1.47 -8.26,-5.28 -12.11,-7.51l-36.48 -21.29c-6.54,-3.53 -45.66,-25.66 -48.16,-28.41zm-38.22 -174.02l-0.08 143.97c0.04,21.61 3,22.89 27.38,35.94l80.25 46.31c6.46,3.87 24.72,17.28 32.35,14.68 6.45,-2.2 4.62,-13.35 4.61,-23.57l0.01 -133.88c-0.01,-14.02 2.29,-24.63 -6.78,-32.35 -6.83,-5.82 -111.56,-66.72 -123.77,-73.38 -16.41,-8.97 -13.99,10.92 -13.97,22.28z"/>
    <path class="fil2" d="M278.82 172.03c0.26,0.38 -0.11,0.29 1.53,1.49 4.89,3.55 10.6,4 15.12,13.21 4.17,8.5 2.62,20.66 2.64,30.79 0.03,21.7 0.01,43.41 0.01,65.11l-0.25 131.06c-2.88,21.95 -30.49,0.71 -39.89,-5.13 -27.71,-17.21 -54.91,-31.86 -83.21,-47.94 -5.55,-3.15 -32.06,-19.07 -37.54,-23.85 -1.98,-1.73 -0.68,-0.92 -2.75,-2.2 -6.58,-12.97 -4.83,-5.91 -4.87,-26.26l0.05 -187.08c0.1,-30.51 -4.69,-38.17 22.94,-22.66 5.85,3.29 12.05,7.47 17.59,10.8 22.16,13.32 50.54,28.49 71.88,41.81l36.75 20.85zm-64.74 -48.43c-1.3,-1.85 -0.31,-1.2 -2.98,-2.67 -11.1,-7.18 -22.52,-12.89 -33.17,-19.37 -5.1,-3.11 -29.87,-16.08 -32.2,-19.76 4.69,-4.07 16.92,-11.36 25.09,-8.75 2.44,0.78 8.59,4.73 11.18,6.22 4.44,2.55 7.47,4.18 11.09,6.24l88.97 50.52c47.99,27.92 46.84,20.58 46.87,57.65l-0.14 174.24c0.01,8.02 1.07,27.32 -1.56,33.14 -2.1,4.62 -13.34,12.23 -18.88,14.96 -1.2,-14.33 -0.17,-33.26 -0.17,-48.1l0.01 -144.89c-0.03,-41.12 2.9,-44.65 -32.98,-64.65 -8.19,-4.56 -55,-33.67 -61.13,-34.78zm156.19 273.34c4.41,-1.71 9.79,-6.26 9.84,-11.6 0.06,-7.53 -6.53,-9.94 -11.59,-12.95 -9.71,-5.79 -21.49,-12.11 -30.15,-18.12 -1.11,-47.12 -0.05,-101.17 -0.06,-149.58 0,-12.9 2.64,-36.82 -4.53,-44.92 -4.05,-9.84 -32.01,-23.35 -42.92,-29.81 -6.91,-4.1 -41.83,-24.75 -46.02,-25.92 -1.62,-2.53 -12.02,-7.56 -15.65,-9.64l-48.34 -27.82c-15.38,-8.86 -27.28,-0.47 -38.75,6.3 -13.18,7.79 -22.26,8.52 -22.19,28.17 0.23,67.55 -0.07,135.12 -0.01,202.68 0.02,19.81 -0.86,29.36 10.85,40.42 9.06,8.56 77.56,47.38 94.13,57.23 10.27,6.11 21.77,12.18 32.53,18.82 35.95,22.2 41.34,22.21 70.85,3 5.6,-3.65 35.86,-21.6 42.01,-26.26z"/>
    <path class="fil3" d="M228.27 339.26l36.48 21.29c3.85,2.23 8.45,6.04 12.11,7.51 -2.25,-32.77 -0.69,-98.46 -0.66,-136.78 0.01,-7.64 0.02,-15.29 0.04,-22.93 0.03,-10.7 1.19,-11.69 -6.56,-15.9 -34.95,-19.02 -67.58,-38.26 -101.21,-58.44 -3.1,-1.86 -11.99,-7.7 -14.78,-8.48 -2.98,27.69 -2.04,120.88 -1.68,158.03 0.12,12.9 0.47,11.46 9.58,16.94 21.83,13.11 44.37,26.73 66.68,38.76z"/>
    <path class="fil2" d="M217.71 352.56c-7.19,-8.88 -16.24,-6.66 -17.83,0.99 -4.59,22.11 34.44,22.77 17.83,-0.99z"/>
   </g>
  </g>
 </g>
</svg>
