<?xml version="1.0" encoding="UTF-8"?>
<!DOCTYPE svg PUBLIC "-//W3C//DTD SVG 1.1//EN" "http://www.w3.org/Graphics/SVG/1.1/DTD/svg11.dtd">
<!-- Creator: CorelDRAW 2021 (64 Bit) -->
<svg xmlns="http://www.w3.org/2000/svg" xml:space="preserve" width="500px" height="500px" version="1.1" style="shape-rendering:geometricPrecision; text-rendering:geometricPrecision; image-rendering:optimizeQuality; fill-rule:evenodd; clip-rule:evenodd"
viewBox="0 0 500 500"
 xmlns:xlink="http://www.w3.org/1999/xlink"
 xmlns:xodm="http://www.corel.com/coreldraw/odm/2003">
 <defs>
  <style type="text/css">
   <![CDATA[
    .fil0 {fill:none}
    .fil2 {fill:#03E6FF}
    .fil1 {fill:#FDFDFD}
    .fil3 {fill:#FF2121}
   ]]>
  </style>
 </defs>
 <g id="Camada_x0020_1">
  <metadata id="CorelCorpID_0Corel-Layer"/>
  <g id="_2550710071584">
   <rect class="fil0" width="500" height="500"/>
   <g>
    <path class="fil1" d="M189.94 133.95c-2.72,4.17 -81.99,47.95 -85.98,53.35 1.64,3.65 16.25,10.55 20.33,12.95l62.38 35.82c9.52,5.41 81.22,45.26 83.05,47.63 10.01,3.29 25.4,19.33 37.66,13.06 5.85,-2.99 11.44,-7.22 16.35,-10.18l78.16 -47.45c2.92,-2.04 1.85,-0.87 3.35,-3.23 -4.26,-3.26 -9.32,-5.02 -14.23,-7.88 -16.18,-9.43 -7.72,-11.08 -40.46,9.32 -5.89,3.67 -23.38,14.51 -28.89,14.32 -5.75,-0.2 -96.64,-54.09 -110.88,-62.63 -4.54,-2.72 -9.22,-5.09 -14.15,-7.83 -5.28,-2.93 -10.04,-4.36 -11.97,-9.49 2.98,-10.84 26.83,-14.1 28.24,-22.2 5.93,-34.22 -22.49,-15.7 -22.96,-15.56z"/>
    <path class="fil1" d="M205.19 295.52c6.95,2.79 37.68,21.46 45.35,26.17 15.25,9.36 15.02,6.58 14.95,20.58 -0.05,10.77 -0.69,24.44 0.24,34.9 7.49,4.13 24.79,16.14 32.11,18.48l-0.14 -86.61c-4.12,-1.6 -7.29,-2.32 -11.57,-4.55 -11.73,-6.11 -68.15,-38.56 -70.57,-41.59 -4.19,-0.63 -78.07,-43.86 -85.54,-48.08 -5.6,-3.17 -23.18,-15.24 -28.31,-15.7 -1.05,21.17 -0.16,44.7 -0.14,66.12 0,14.82 -0.81,15.75 9.7,23.25 11.07,7.91 9.49,4.16 20.21,-2.35 0.33,-8.11 -3.76,-29.25 7.63,-28.52 3.63,0.24 65.07,36.54 66.08,37.9z"/>
    <path class="fil2" d="M88.29 324.71c-3.21,4.49 -12.51,8.38 -16.38,11.82 -1.49,1.31 -0.86,0.5 -1.72,2.08l52.69 31.89c8.73,5.33 17.61,9.64 27.16,14.99 7.73,4.34 18.71,12.09 25.8,15.24 7.01,-3.45 13.59,-8.74 20.81,-12.92 20.96,-12.13 40.27,-26.13 62.68,-38.23l0.13 -3.25c-10.37,-2.08 -104.14,-60.81 -109.1,-60.34 -3.36,0.33 -56.67,38.45 -62.07,38.72z"/>
    <path class="fil3" d="M146.4 310.02c-7.48,4.91 8.66,11.32 11.83,13.21l36.9 21.81c3.84,2.2 16.38,10.94 20.54,7.87 6.9,-5.09 -7.93,-11.87 -11.66,-14.11l-46.66 -26.68c-3.32,-2.04 -6.76,-4.86 -10.95,-2.1zm32.09 49.68c-1.63,-3.32 0.02,-2.21 -4.08,-3.66 -0.37,-0.48 -0.1,-0.31 -1.19,-1.16l-29.27 -17.48c-4.62,-2.68 -10.53,-6.01 -15.78,-8.94 -4.55,-2.53 -12.55,-8.11 -14.59,0.98 0.28,3.05 44.01,27.06 49.43,30.23 3.36,1.97 15.79,10.57 15.48,0.03z"/>
    <path class="fil3" d="M296.54 406.4c2.65,3.31 18.15,11.17 23.32,11.73 12.12,1.29 18.16,-4.65 26.29,-9.15 29.27,-16.22 58.66,-35.65 88.55,-52.6 10.47,-5.94 14.66,-11.78 3.82,-20l-21.1 -13.64c-1.12,-16.29 -0.15,-53.99 -0.12,-74 0.01,-9.05 0.73,-14.24 -4.69,-19.44 -2.99,-2.86 -25.23,-15.78 -30.19,-18.5 -5.61,-3.07 -27.25,-14.67 -30.07,-18 -1.42,-29.02 5.8,-41.74 -18.77,-55.07 -30.92,-16.78 -61.67,-35.81 -92.13,-52.85 -5.07,-2.84 -8.62,-4.3 -14.24,-2.18 -14.46,5.45 -14.53,11.49 -14.44,22.06l-0.26 14.57c-0.07,0.28 -0.24,0.58 -0.31,0.8l-0.84 1.55c-7.01,-8.56 -21.48,2.95 -27.75,6.4 -5.69,3.12 -20.71,10.8 -24.34,15.2 -3.1,-0.25 -33.84,18.94 -38,21.59 -12.68,8.07 -28.5,11.07 -28.77,31.56 -0.12,9.53 -1.82,83.41 1.5,89.18 1.99,3.45 11.09,9.91 14.2,11.51 1.95,1 0.61,0.56 2.39,0.82l0.25 2.96c-6.05,2.17 -34.72,20.71 -42.95,26 -15.45,9.94 -18.29,11.57 -0.67,22.19l104.15 60.32c4.41,1.11 7.12,-0.59 10.97,0.73 8.4,2.87 12.01,12.35 24.18,5l44.04 -26.57c8.66,-4.91 7.95,-3.69 15.71,0.9 6.18,3.66 23.87,15.01 30.27,16.93zm-106.6 -272.45c0.47,-0.14 28.89,-18.66 22.96,15.56 -1.41,8.1 -25.26,11.36 -28.24,22.2 1.93,5.13 6.69,6.56 11.97,9.49 4.93,2.74 9.61,5.11 14.15,7.83 14.24,8.54 105.13,62.43 110.88,62.63 5.51,0.19 23,-10.65 28.89,-14.32 32.74,-20.4 24.28,-18.75 40.46,-9.32 4.91,2.86 9.97,4.62 14.23,7.88 -1.5,2.36 -0.43,1.19 -3.35,3.23l-78.16 47.45c-4.91,2.96 -10.5,7.19 -16.35,10.18 -12.26,6.27 -27.65,-9.77 -37.66,-13.06 -1.83,-2.37 -73.53,-42.22 -83.05,-47.63l-62.38 -35.82c-4.08,-2.4 -18.69,-9.3 -20.33,-12.95 3.99,-5.4 83.26,-49.18 85.98,-53.35zm25.62 128.95c2.42,3.03 58.84,35.48 70.57,41.59 4.28,2.23 7.45,2.95 11.57,4.55l0.14 86.61c-7.32,-2.34 -24.62,-14.35 -32.11,-18.48 -0.93,-10.46 -0.29,-24.13 -0.24,-34.9 0.07,-14 0.3,-11.22 -14.95,-20.58 -7.67,-4.71 -38.4,-23.38 -45.35,-26.17 -1.01,-1.36 -62.45,-37.66 -66.08,-37.9 -11.39,-0.73 -7.3,20.41 -7.63,28.52 -10.72,6.51 -9.14,10.26 -20.21,2.35 -10.51,-7.5 -9.7,-8.43 -9.7,-23.25 -0.02,-21.42 -0.91,-44.95 0.14,-66.12 5.13,0.46 22.71,12.53 28.31,15.7 7.47,4.22 81.35,47.45 85.54,48.08zm43.9 83.43l-0.13 3.25c-22.41,12.1 -41.72,26.1 -62.68,38.23 -7.22,4.18 -13.8,9.47 -20.81,12.92 -7.09,-3.15 -18.07,-10.9 -25.8,-15.24 -9.55,-5.35 -18.43,-9.66 -27.16,-14.99l-52.69 -31.89c0.86,-1.58 0.23,-0.77 1.72,-2.08 3.87,-3.44 13.17,-7.33 16.38,-11.82 5.4,-0.27 58.71,-38.39 62.07,-38.72 4.96,-0.47 98.73,58.26 109.1,60.34z"/>
    <path class="fil2" d="M241.87 177.27c7.62,2.51 22.1,12.39 29.78,16.93 5.82,3.45 9.29,5.3 14.51,8.44 4.75,2.85 11.13,5.09 14.52,9.41 2.51,-0.3 24.9,13.43 30.22,16.44 4.01,2.28 6.61,5 10.92,4.68 1.9,-4.23 0.98,-56.73 1.01,-66.06 0.06,-17.81 -10.32,-18.82 -34.35,-32.68l-64.23 -36.61c-7.79,-4.48 -13.88,-10.66 -22.32,-1.31l0.19 68.78c4.07,3.12 17.32,8.71 19.75,11.98z"/>
   </g>
  </g>
 </g>
</svg>
