<?xml version="1.0" encoding="UTF-8"?>
<!DOCTYPE svg PUBLIC "-//W3C//DTD SVG 1.1//EN" "http://www.w3.org/Graphics/SVG/1.1/DTD/svg11.dtd">
<!-- Creator: CorelDRAW 2021 (64 Bit) -->
<svg xmlns="http://www.w3.org/2000/svg" xml:space="preserve" width="500px" height="500px" version="1.1" style="shape-rendering:geometricPrecision; text-rendering:geometricPrecision; image-rendering:optimizeQuality; fill-rule:evenodd; clip-rule:evenodd"
viewBox="0 0 500 500"
 xmlns:xlink="http://www.w3.org/1999/xlink"
 xmlns:xodm="http://www.corel.com/coreldraw/odm/2003">
 <defs>
  <style type="text/css">
   <![CDATA[
    .fil0 {fill:none}
    .fil3 {fill:#03E6FF}
    .fil2 {fill:#FDFDFE}
    .fil1 {fill:#FF2121}
    .fil4 {fill:white}
   ]]>
  </style>
 </defs>
 <g id="Camada_x0020_1">
  <metadata id="CorelCorpID_0Corel-Layer"/>
  <g id="_2550711455792">
   <rect class="fil0" width="500" height="500"/>
   <g>
    <path class="fil1" d="M236.04 126.59c2,0.22 1.16,-0.24 3.44,1.16 2.04,1.24 1.1,0.51 1.52,1.54 4.11,1.06 15.18,8.16 20.06,10.97 3.04,1.74 6.25,3.73 9.22,5.35 3.18,1.75 6.04,4.05 8.83,5.27 5.63,4.04 14.18,8.5 21.11,12.46 7.24,4.13 13.43,7.74 21.12,12.22 13.15,7.67 27.44,16.16 41.53,24.27 4.17,2.04 7.31,4.39 11.61,6.72 19.56,10.58 39.92,23.23 58.9,34.34 5.83,3.41 19.56,9.53 20.42,15.75 -0.34,1.84 -61.56,36.89 -67.75,40.55 -11.26,6.64 -22.14,13.18 -34.32,20.05 -6.68,3.78 -9.87,7.54 -20.01,6.63 -5.64,-0.51 -13.85,-5.64 -18.27,-8.66l-54.66 -30.95c-17.72,-10.96 -36.02,-20.41 -54.14,-30.96 -15.3,-8.93 -40.26,-22.33 -54.16,-30.96l-53.71 -30.79 -51.23 -29.44c-5.39,-3.08 -12.62,-6.87 -16.89,-9.73 1.61,-6.36 16.31,-13.18 23.81,-17.77l76.85 -45.54c8.06,-4.59 18.88,-14.3 29.73,-8.04 9.05,5.22 16.51,9.55 25.74,14.74 2.89,1.63 49.89,28.09 51.25,30.82zm-90.28 -59.39c-8.71,2.66 -51.04,29.05 -60.37,34.56l-45.14 26.29c-12.65,7.56 -22.01,10.43 -22.23,25.69 -0.39,27.74 -1.6,19.53 31.71,39.84 20.21,12.33 40.89,23.55 60.63,35.03l210.75 122.1c8.42,4.89 22.2,15.02 33.89,13.28 5.73,-0.86 52.21,-29.26 60.43,-34.08 20.05,-11.76 41.67,-23.25 61.48,-34.11 6.37,-3.49 6.74,-11.94 1.83,-16.1 -5.16,-4.37 -12.23,-2.02 -12.06,-11.67 0.35,-19 -3.18,-23.42 -16.48,-31.11l-120.55 -69.86c-9.6,-5.62 -19.53,-12.34 -30.06,-17.73 -9.91,-5.08 -20.4,-11.7 -30.07,-17.62 -9.73,-5.97 -19.57,-11.52 -29.88,-17.22l-60.28 -35.24c-7.51,-4.43 -22.57,-15.42 -33.6,-12.05z"/>
    <path class="fil1" d="M98.37 350.73l33.03 -19.4c11.11,-5.81 23.74,-12.89 34.57,-19.06 13.03,-7.43 11.02,-5.72 35.17,8.57 11.76,6.96 27.06,13.35 30.19,23.2 3.48,10.97 -2.3,12.56 -8.4,16.23l-34.35 19.14c-24.79,14.98 -35.6,3.64 -56.86,-8.62l-25.28 -14.4c-2.12,-1.09 -7.24,-3.06 -8.07,-5.66zm-51.6 -14.22c2.65,0.24 88.48,50.23 104.19,59.54 7.08,4.19 7.66,6.75 7.64,17.45 -3.96,-0.45 -26.7,-14.8 -30.61,-17.12l-74.43 -43.08c-3.16,-2.56 -7.92,-10.51 -6.79,-16.79zm1.49 -14.94c2.48,-4.59 11.83,-8.85 16.73,-11.5 3.1,-1.69 6.26,-3.54 9.24,-5.24 4.11,-2.35 6.43,-4.17 10.04,-2.66 4.31,1.8 36.5,19.74 37.24,21.02 -0.93,2.47 -14.51,8.94 -17.32,10.65 -21.1,12.84 -17.9,11.33 -38.5,-0.73l-13.97 -7.96c-0.68,-0.4 -1.25,-0.72 -1.88,-1.32 -1.53,-1.46 -1.41,-2.07 -1.58,-2.26zm46.91 -29.16c1.71,-2.7 12.89,-6.3 16.28,-7.27 5.87,-1.68 14.82,-1.77 21.69,-0.77 6.17,0.9 27.59,12.1 28.94,16.14 -0.86,1.45 -14.77,8.5 -16.87,9.56 -12.71,6.44 -9.53,6.29 -17.53,1.54 -3.06,-1.83 -31.18,-15.63 -32.51,-19.2zm20.82 -20.25c-9.11,3.53 -7.17,-1.77 -33.57,14.06 -2.77,1.66 -5.85,2.88 -7.99,4.11 -33.71,19.48 -38.03,14.33 -37.96,46.63 0.03,17.89 5.11,24.28 17.66,31.26 21.56,12 46.04,25.19 65.17,36.87 0.15,0.09 0.35,0.21 0.5,0.3l41.97 23.69c14.26,8 25.49,3.8 37.61,-3.22 5.49,-3.17 10.73,-5.57 15.84,-8.45 10.28,-5.81 20.45,-11.4 31.23,-17.42 3.74,-2.08 10.98,-4.89 13.43,-10 3.29,-6.83 0.77,-13.53 -4.31,-17.48 -2.67,-2.08 -4.34,-3.24 -7.23,-5.03 -11.09,-6.89 -0.4,-14.49 -6.84,-29.6 -5.98,-14.03 -25.64,-21.72 -40.85,-31.18 -5.82,-3.63 -9.35,-5.37 -15.63,-8.77 -15.89,-8.59 -49.59,-33.32 -69.03,-25.77z"/>
    <path class="fil2" d="M98.37 350.73c0.83,2.6 5.95,4.57 8.07,5.66l25.28 14.4c21.26,12.26 32.07,23.6 56.86,8.62l34.35 -19.14c6.1,-3.67 11.88,-5.26 8.4,-16.23 -3.13,-9.85 -18.43,-16.24 -30.19,-23.2 -24.15,-14.29 -22.14,-16 -35.17,-8.57 -10.83,6.17 -23.46,13.25 -34.57,19.06l-33.03 19.4z"/>
    <path class="fil1" d="M129.41 185.58c2.82,0.05 27.69,15.58 32.3,18.29l56.97 33.01c2.41,1.42 4.61,4.63 8.32,2.56 1.29,-0.73 1.87,-1.58 3.83,-2.63 15.37,-8.2 27.48,-10.53 10.86,-19.3 -14.5,-9.07 -35.05,-19.39 -49.89,-28.43 -4.83,-2.94 -10.94,-6.59 -16.34,-9.52 -44.26,-24 -36.61,-29.13 -59.62,-14.07 -3.19,2.1 -4.7,3.16 -4.19,8.42 3.35,2.41 5.56,3.34 8.91,5.54 1.71,1.12 2.56,1.74 4.44,2.74l4.41 3.39z"/>
    <path class="fil1" d="M356.38 271.23c-5.22,25.85 -44.94,18.78 -43.56,-0.78 1.64,-23.35 47.21,-17.34 43.56,0.78zm-55.38 6.92c2.22,0.84 1.2,8.35 14.87,15.49 15.13,7.89 33.46,8.54 45.4,-4.2 7.63,-8.14 5.96,-15.04 8.51,-21.37 5.03,0.96 -0.07,1.97 5.6,1.47 1.23,-7.96 -0.32,-10.02 -4.23,-15.01 -16.1,-20.56 9.57,-14.19 18,-9.05 2.44,1.49 4.76,3.91 7.12,6.53 2.16,2.4 3.52,6.41 7.01,6.16 2.29,-9.32 2.81,-13.33 -4.1,-19.62 -8.39,-7.63 -26.78,-12.87 -38.54,-7.2 -10.03,4.83 -6.38,14.88 -6.53,16.88 -3.68,-0.63 -17.87,-10.11 -37.33,-0.9 -12.63,5.97 -16.76,14.68 -15.78,30.82z"/>
    <path class="fil3" d="M48.26 321.57c0.17,0.19 0.05,0.8 1.58,2.26 0.63,0.6 1.2,0.92 1.88,1.32l13.97 7.96c20.6,12.06 17.4,13.57 38.5,0.73 2.81,-1.71 16.39,-8.18 17.32,-10.65 -0.74,-1.28 -32.93,-19.22 -37.24,-21.02 -3.61,-1.51 -5.93,0.31 -10.04,2.66 -2.98,1.7 -6.14,3.55 -9.24,5.24 -4.9,2.65 -14.25,6.91 -16.73,11.5z"/>
    <path class="fil2" d="M150.96 396.05c-15.71,-9.31 -101.54,-59.3 -104.19,-59.54 -1.13,6.28 3.63,14.23 6.79,16.79l74.43 43.08c3.91,2.32 26.65,16.67 30.61,17.12 0.02,-10.7 -0.56,-13.26 -7.64,-17.45z"/>
    <path class="fil3" d="M95.17 292.41c1.33,3.57 29.45,17.37 32.51,19.2 8,4.75 4.82,4.9 17.53,-1.54 2.1,-1.06 16.01,-8.11 16.87,-9.56 -1.35,-4.04 -22.77,-15.24 -28.94,-16.14 -6.87,-1 -15.82,-0.91 -21.69,0.77 -3.39,0.97 -14.57,4.57 -16.28,7.27z"/>
    <path class="fil3" d="M356.38 271.23c3.65,-18.12 -41.92,-24.13 -43.56,-0.78 -1.38,19.56 38.34,26.63 43.56,0.78z"/>
    <path class="fil1" d="M238.22 171.59c-2.37,-4.65 -12.37,-10 -17.47,-11.48 -1.07,-1.45 -6.08,-4.44 -8.98,-4.72 -3.79,-0.37 -7.22,1.87 -10.18,3.49 -3.29,1.8 -6.39,3.54 -9.24,5.36 -8.98,5.78 -11.49,6.24 -1.35,11.99 2.45,1.39 4.41,2.93 7,4.23 17.59,8.82 14.66,13.37 30.57,2.99 7.75,-5.06 11.05,-5.72 9.65,-11.86z"/>
    <path class="fil1" d="M279.33 204.39c3.15,-2.68 5.04,-2.34 5.5,-6.88 -1.65,-2.61 -18.15,-11.87 -21.96,-13.07 -0.32,-0.87 -0.37,-0.76 -1.58,-1.63 -0.5,-0.36 -1.26,-0.81 -2.04,-1.24 -5.63,-3.06 -8.84,-0.62 -14.89,2.98 -22.02,13.08 -21.59,9.63 8.22,26.44 13.09,7.38 9.78,0.88 26.75,-6.6z"/>
    <path class="fil1" d="M238.92 250.97c3.16,2.6 9.14,5.76 12.74,7.99 13.08,8.12 10.73,7.69 26.69,-2.26 14.74,-9.19 16.17,-7.68 -0.48,-17.45 -13.38,-7.86 -12.31,-11.5 -39.04,7.67l0.09 4.05z"/>
    <path class="fil1" d="M148.64 129.5l0.64 0.23c5.24,-8.34 7.29,-4.72 -18.39,-19.77 -8,-4.68 -11.34,0.28 -21.54,6.93 -10.52,6.86 -2.12,9.61 5.42,14.05 3.37,1.99 6.82,4.44 10.51,6.45 9.55,5.23 13.34,-5.13 23.36,-7.89z"/>
    <path class="fil1" d="M153.17 141.03c-0.59,1.61 -1.82,1.86 -3.13,2.49 -3.04,8.15 1.37,8.23 7.2,11.48 2.46,1.38 10.25,6.73 12.56,6.82 2.37,0.09 4.32,-1.79 6.44,-3.1 8.42,-5.21 15.72,-6.2 14.95,-14.35 -4.22,-2.76 -13.59,-8.98 -18.19,-11.03 -6.97,-3.11 -12.9,5.75 -19.83,7.69z"/>
    <path class="fil1" d="M286.06 214.24l-1.46 1.9c1.62,4.26 15.05,11 18.91,12.92 4.14,2.06 5.98,4.8 11.33,2.69 3.55,-1.41 6.86,-3.42 7.67,-8.32l-8.79 -6.26c-9.16,-5.65 -17.84,-13.96 -27.66,-2.93z"/>
    <path class="fil1" d="M298.87 192.05c1.35,2.4 10.42,7.42 13.82,9.16 6.12,3.14 10.66,-2.34 13.82,-6.13 -0.6,-2.44 -0.41,-1.14 -1.77,-3.35 -4.58,-2.23 -8.81,-5.36 -13.13,-8.15 -5.39,-3.49 -9.6,2.25 -13.26,4.98l0.52 3.49z"/>
    <path class="fil1" d="M285.54 183.29c3.02,-1.39 7.25,-5.06 8.29,-8.46 -1.04,-1.39 -0.61,-1.09 -2.19,-2.2 -0.75,-0.53 -2.25,-1.23 -3.09,-1.68 -1.85,-1.01 -3.54,-1.97 -5.55,-3.29 -4.41,-2.9 -8.74,-6.48 -13.13,-1.22 -4.78,5.73 -2.3,7.79 2.78,10.77 3.06,1.8 8.84,5.82 12.89,6.08z"/>
    <path class="fil1" d="M236.81 155.13c2.27,3.15 9.84,7.65 13.28,9.08 3.4,1.4 4.67,0.43 7.45,-1.92 3.01,-2.54 4.97,-3.47 4.2,-7.02 -3.27,-2.26 -5.74,-3.53 -9.34,-5.65 -3.69,-2.17 -5.09,-4.08 -10.51,-3.72 -1.91,2.37 -5.15,4.76 -5.08,9.23z"/>
    <path class="fil1" d="M170.7 102.74c-1.37,-2.87 -9.93,-7.87 -12.43,-9.62 -2.41,-1.68 -4.42,-2.96 -8.04,-0.92 -1.1,0.62 -5.07,4.39 -5.43,5.95 -1.1,4.84 8.07,7.73 11.64,9.83 6.01,3.55 11.83,-1.01 14.26,-5.24z"/>
    <path class="fil1" d="M183.29 125.81c3.1,1.91 6.41,4.82 10.43,2.53 0.11,-0.06 4.1,-2.96 4.2,-3.05 1.74,-1.66 1.57,-3.5 1.35,-6.34 -2.68,0.46 -9.55,-5.59 -12.02,-7.01 -3.86,-2.23 -18.35,5.43 -8.8,11.26 1.36,0.83 3.12,1.82 4.84,2.61z"/>
    <path class="fil1" d="M336.57 207.71c-4.13,2.87 -3.86,4.81 0.43,7.32 7.17,4.18 11.44,9.81 16.63,6.03 6.65,-4.85 5.84,-8.97 -1.64,-11.73 -7.72,-4.82 -7.58,-6.82 -15.42,-1.62z"/>
    <path class="fil1" d="M206.84 133.93l-0.86 2.8c2.39,2.83 10.87,8.87 14.81,9.1 0.91,0.06 13.3,-2.97 8.33,-9.31l-1.94 -2.18c-4.68,0.03 -5.73,-5.83 -13.73,-5.26 -4.08,2.22 -3.24,4.63 -6.61,4.85z"/>
    <path class="fil4" d="M52.47 134.61c-7.5,4.59 -22.2,11.41 -23.81,17.77 4.27,2.86 11.5,6.65 16.89,9.73l51.23 29.44 53.71 30.79c13.9,8.63 38.86,22.03 54.16,30.96 18.12,10.55 36.42,20 54.14,30.96l54.66 30.95c4.42,3.02 12.63,8.15 18.27,8.66 10.14,0.91 13.33,-2.85 20.01,-6.63 12.18,-6.87 23.06,-13.41 34.32,-20.05 6.19,-3.66 67.41,-38.71 67.75,-40.55 -0.86,-6.22 -14.59,-12.34 -20.42,-15.75 -18.98,-11.11 -39.34,-23.76 -58.9,-34.34 -4.3,-2.33 -7.44,-4.68 -11.61,-6.72 -14.09,-8.11 -28.38,-16.6 -41.53,-24.27 -7.69,-4.48 -13.88,-8.09 -21.12,-12.22 -6.93,-3.96 -15.48,-8.42 -21.11,-12.46 -2.79,-1.22 -5.65,-3.52 -8.83,-5.27 -2.97,-1.62 -6.18,-3.61 -9.22,-5.35 -4.88,-2.81 -15.95,-9.91 -20.06,-10.97 -0.42,-1.03 0.52,-0.3 -1.52,-1.54 -2.28,-1.4 -1.44,-0.94 -3.44,-1.16 -1.36,-2.73 -48.36,-29.19 -51.25,-30.82 -9.23,-5.19 -16.69,-9.52 -25.74,-14.74 -10.85,-6.26 -21.67,3.45 -29.73,8.04l-76.85 45.54zm174.53 104.83c-3.71,2.07 -5.91,-1.14 -8.32,-2.56l-56.97 -33.01c-4.61,-2.71 -29.48,-18.24 -32.3,-18.29l-4.41 -3.39c-1.88,-1 -2.73,-1.62 -4.44,-2.74 -3.35,-2.2 -5.56,-3.13 -8.91,-5.54 -0.51,-5.26 1,-6.32 4.19,-8.42 23.01,-15.06 15.36,-9.93 59.62,14.07 5.4,2.93 11.51,6.58 16.34,9.52 14.84,9.04 35.39,19.36 49.89,28.43 16.62,8.77 4.51,11.1 -10.86,19.3 -1.96,1.05 -2.54,1.9 -3.83,2.63zm11.83 7.48c26.73,-19.17 25.66,-15.53 39.04,-7.67 16.65,9.77 15.22,8.26 0.48,17.45 -15.96,9.95 -13.61,10.38 -26.69,2.26 -3.6,-2.23 -9.58,-5.39 -12.74,-7.99l-0.09 -4.05zm77.95 0.41c19.46,-9.21 33.65,0.27 37.33,0.9 0.15,-2 -3.5,-12.05 6.53,-16.88 11.76,-5.67 30.15,-0.43 38.54,7.2 6.91,6.29 6.39,10.3 4.1,19.62 -3.49,0.25 -4.85,-3.76 -7.01,-6.16 -2.36,-2.62 -4.68,-5.04 -7.12,-6.53 -8.43,-5.14 -34.1,-11.51 -18,9.05 3.91,4.99 5.46,7.05 4.23,15.01 -5.67,0.5 -0.57,-0.51 -5.6,-1.47 -2.55,6.33 -0.88,13.23 -8.51,21.37 -11.94,12.74 -30.27,12.09 -45.4,4.2 -13.67,-7.14 -12.65,-14.65 -14.87,-15.49 -0.98,-16.14 3.15,-24.85 15.78,-30.82zm-88.21 -63.88c-15.91,10.38 -12.98,5.83 -30.57,-2.99 -2.59,-1.3 -4.55,-2.84 -7,-4.23 -10.14,-5.75 -7.63,-6.21 1.35,-11.99 2.85,-1.82 5.95,-3.56 9.24,-5.36 2.96,-1.62 6.39,-3.86 10.18,-3.49 2.9,0.28 7.91,3.27 8.98,4.72 5.1,1.48 15.1,6.83 17.47,11.48 1.4,6.14 -1.9,6.8 -9.65,11.86zm24.01 27.54c-29.81,-16.81 -30.24,-13.36 -8.22,-26.44 6.05,-3.6 9.26,-6.04 14.89,-2.98 0.78,0.43 1.54,0.88 2.04,1.24 1.21,0.87 1.26,0.76 1.58,1.63 3.81,1.2 20.31,10.46 21.96,13.07 -0.46,4.54 -2.35,4.2 -5.5,6.88 -16.97,7.48 -13.66,13.98 -26.75,6.6zm60.11 -9.78c-3.4,-1.74 -12.47,-6.76 -13.82,-9.16l-0.52 -3.49c3.66,-2.73 7.87,-8.47 13.26,-4.98 4.32,2.79 8.55,5.92 13.13,8.15 1.36,2.21 1.17,0.91 1.77,3.35 -3.16,3.79 -7.7,9.27 -13.82,6.13zm-129.4 -75.4c-1.72,-0.79 -3.48,-1.78 -4.84,-2.61 -9.55,-5.83 4.94,-13.49 8.8,-11.26 2.47,1.42 9.34,7.47 12.02,7.01 0.22,2.84 0.39,4.68 -1.35,6.34 -0.1,0.09 -4.09,2.99 -4.2,3.05 -4.02,2.29 -7.33,-0.62 -10.43,-2.53zm-58.01 11.58c-3.69,-2.01 -7.14,-4.46 -10.51,-6.45 -7.54,-4.44 -15.94,-7.19 -5.42,-14.05 10.2,-6.65 13.54,-11.61 21.54,-6.93 25.68,15.05 23.63,11.43 18.39,19.77l-0.64 -0.23c-10.02,2.76 -13.81,13.12 -23.36,7.89zm31.16 -29.41c-3.57,-2.1 -12.74,-4.99 -11.64,-9.83 0.36,-1.56 4.33,-5.33 5.43,-5.95 3.62,-2.04 5.63,-0.76 8.04,0.92 2.5,1.75 11.06,6.75 12.43,9.62 -2.43,4.23 -8.25,8.79 -14.26,5.24zm128.16 108.16l1.46 -1.9c9.82,-11.03 18.5,-2.72 27.66,2.93l8.79 6.26c-0.81,4.9 -4.12,6.91 -7.67,8.32 -5.35,2.11 -7.19,-0.63 -11.33,-2.69 -3.86,-1.92 -17.29,-8.66 -18.91,-12.92zm52.4 -1.11c-4.29,-2.51 -4.56,-4.45 -0.43,-7.32 7.84,-5.2 7.7,-3.2 15.42,1.62 7.48,2.76 8.29,6.88 1.64,11.73 -5.19,3.78 -9.46,-1.85 -16.63,-6.03zm-167.2 -53.21c-2.31,-0.09 -10.1,-5.44 -12.56,-6.82 -5.83,-3.25 -10.24,-3.33 -7.2,-11.48 1.31,-0.63 2.54,-0.88 3.13,-2.49 6.93,-1.94 12.86,-10.8 19.83,-7.69 4.6,2.05 13.97,8.27 18.19,11.03 0.77,8.15 -6.53,9.14 -14.95,14.35 -2.12,1.31 -4.07,3.19 -6.44,3.1zm115.74 21.47c-4.05,-0.26 -9.83,-4.28 -12.89,-6.08 -5.08,-2.98 -7.56,-5.04 -2.78,-10.77 4.39,-5.26 8.72,-1.68 13.13,1.22 2.01,1.32 3.7,2.28 5.55,3.29 0.84,0.45 2.34,1.15 3.09,1.68 1.58,1.11 1.15,0.81 2.19,2.2 -1.04,3.4 -5.27,7.07 -8.29,8.46zm-28 -21c-2.78,2.35 -4.05,3.32 -7.45,1.92 -3.44,-1.43 -11.01,-5.93 -13.28,-9.08 -0.07,-4.47 3.17,-6.86 5.08,-9.23 5.42,-0.36 6.82,1.55 10.51,3.72 3.6,2.12 6.07,3.39 9.34,5.65 0.77,3.55 -1.19,4.48 -4.2,7.02zm-51.56 -25.56l0.86 -2.8c3.37,-0.22 2.53,-2.63 6.61,-4.85 8,-0.57 9.05,5.29 13.73,5.26l1.94 2.18c4.97,6.34 -7.42,9.37 -8.33,9.31 -3.94,-0.23 -12.42,-6.27 -14.81,-9.1z"/>
   </g>
  </g>
 </g>
</svg>
